<?xml version="1.0" encoding="utf-8"?>
<!-- Generator: Adobe Illustrator 25.0.0, SVG Export Plug-In . SVG Version: 6.00 Build 0)  -->
<svg version="1.1" id="圖層_1" xmlns="http://www.w3.org/2000/svg" xmlns:xlink="http://www.w3.org/1999/xlink" x="0px" y="0px"
	 viewBox="0 0 27.35 27.34" style="enable-background:new 0 0 27.35 27.34;" xml:space="preserve">
<style type="text/css">
	.st0{fill:#3DA018;}
	.st1{fill:none;stroke:#348712;stroke-width:2.947;stroke-linecap:round;stroke-miterlimit:10;}
</style>
<path id="Path_146" class="st0" d="M24.7,26.61l-3.99-3.99c-1.68,1.1-3.64,1.67-5.64,1.65c-3.22-0.04-6.29-1.38-8.51-3.71
	C1.44,15.45,0.17,2.16,0.12,1.59C0.05,0.85,0.59,0.2,1.33,0.13c0.09-0.01,0.17-0.01,0.26,0c2.58,0.27,5.14,0.7,7.66,1.29
	c0.44,0.1,0.81,0.43,0.96,0.86l0.87,2.46l0.73-1.46c0.3-0.6,1-0.89,1.64-0.67c2.64,0.77,5.07,2.12,7.12,3.95
	c4.8,4.8,4.32,10.84,2.06,14.16l3.99,3.99c0.53,0.53,0.53,1.38,0,1.9C26.08,27.13,25.23,27.13,24.7,26.61L24.7,26.61z M18.65,8.47
	c-1.45-1.29-3.14-2.28-4.98-2.9l-1.6,3.22c-0.23,0.49-0.74,0.79-1.29,0.75c-0.54-0.03-1-0.39-1.19-0.89L7.91,3.88
	c-1.94-0.43-3.7-0.71-4.92-0.87c0.49,3.62,1.99,12.18,5.46,15.65c3.75,3.74,7.99,3.3,10.3,2.02l-6.16-6.16
	c-0.52-0.53-0.5-1.38,0.03-1.9c0.52-0.5,1.35-0.5,1.87,0l6.16,6.15C21.95,16.45,22.4,12.22,18.65,8.47L18.65,8.47z M13.54,4.68
	l3.95,1.88l2.96,2.68l1.14,2.26l1.01,4.3l-1.24,3.6l-2.69,2.41l-5.13,0.27L9.7,20.92l-3.97-4.25L3.63,10L2.55,3V1.67l5.49,1.34
	l2.53,4.09l0.86,1.24L13.54,4.68z"/>
<line id="Line_10" class="st1" x1="25.5" y1="25.49" x2="12.63" y2="12.62"/>
</svg>
