<?xml version="1.0" encoding="utf-8"?>
<!-- Generator: Adobe Illustrator 25.0.0, SVG Export Plug-In . SVG Version: 6.00 Build 0)  -->
<svg version="1.1" id="圖層_1" xmlns="http://www.w3.org/2000/svg" xmlns:xlink="http://www.w3.org/1999/xlink" x="0px" y="0px"
	 viewBox="0 0 19.6 20.44" style="enable-background:new 0 0 19.6 20.44;" xml:space="preserve">
<style type="text/css">
	.st0{fill:#121212;}
</style>
<path id="Rectangle_1437" class="st0" d="M1.22,2.4l1.22-1.14c0.81-0.75,2.07-0.71,2.83,0.1L18,15.01c0.75,0.81,0.71,2.07-0.1,2.83
	l-1.22,1.14c-0.81,0.75-2.07,0.71-2.83-0.1L1.13,5.22C0.37,4.42,0.42,3.15,1.22,2.4z"/>
<path id="Rectangle_1438" class="st0" d="M2.44,18.97l-1.22-1.14c-0.81-0.75-0.85-2.02-0.1-2.83L13.86,1.36
	c0.75-0.81,2.02-0.85,2.83-0.1L17.9,2.4c0.81,0.75,0.85,2.02,0.1,2.83L5.27,18.88C4.52,19.68,3.25,19.73,2.44,18.97z"/>
</svg>
