<?xml version="1.0" encoding="utf-8"?>
<!-- Generator: Adobe Illustrator 25.0.0, SVG Export Plug-In . SVG Version: 6.00 Build 0)  -->
<svg version="1.1" id="圖層_1" xmlns="http://www.w3.org/2000/svg" xmlns:xlink="http://www.w3.org/1999/xlink" x="0px" y="0px"
	 viewBox="0 0 27.35 27.34" style="enable-background:new 0 0 27.35 27.34;" xml:space="preserve">
<style type="text/css">
	.st0{fill:#3DA018;}
	.st1{fill:none;stroke:#348712;stroke-width:2.8045;stroke-linecap:round;stroke-miterlimit:10;}
</style>
<path id="Path_146" class="st0" d="M24.08,25.85l-3.79-3.79c-1.6,1.04-3.46,1.59-5.37,1.57c-3.07-0.04-5.99-1.31-8.1-3.53
	C1.94,15.23,0.74,2.58,0.69,2.04c-0.07-0.7,0.45-1.33,1.15-1.39c0.08-0.01,0.16-0.01,0.24,0c2.45,0.26,4.89,0.67,7.29,1.23
	c0.42,0.1,0.77,0.41,0.91,0.82l0.83,2.34l0.69-1.39c0.29-0.57,0.95-0.85,1.56-0.64c2.51,0.74,4.82,2.02,6.77,3.76
	c4.57,4.57,4.11,10.32,1.96,13.47l3.79,3.79c0.5,0.5,0.5,1.31,0,1.81C25.4,26.35,24.58,26.35,24.08,25.85L24.08,25.85z M18.33,8.59
	c-1.38-1.23-2.99-2.17-4.74-2.76l-1.52,3.07c-0.22,0.47-0.71,0.75-1.22,0.71c-0.51-0.03-0.96-0.37-1.13-0.85L8.11,4.22
	C6.26,3.81,4.58,3.55,3.43,3.39c0.47,3.44,1.89,11.59,5.19,14.9c3.56,3.56,7.6,3.14,9.81,1.92l-5.86-5.86
	c-0.49-0.51-0.48-1.32,0.03-1.81c0.5-0.48,1.28-0.48,1.78,0l5.87,5.85C21.47,16.19,21.89,12.16,18.33,8.59L18.33,8.59z M13.47,4.98
	l3.76,1.79l2.82,2.55l1.09,2.15l0.96,4.09L20.91,19l-2.56,2.3l-4.88,0.26L9.8,20.43l-3.78-4.05l-1.99-6.34L3,3.38V2.12l5.22,1.27
	l2.41,3.89l0.82,1.18L13.47,4.98z"/>
<line id="Line_10" class="st1" x1="25.5" y1="25.5" x2="12.6" y2="12.54"/>
</svg>
