<?xml version="1.0" encoding="utf-8"?>
<!-- Generator: Adobe Illustrator 25.0.0, SVG Export Plug-In . SVG Version: 6.00 Build 0)  -->
<svg version="1.1" id="圖層_1" xmlns="http://www.w3.org/2000/svg" xmlns:xlink="http://www.w3.org/1999/xlink" x="0px" y="0px"
	 viewBox="0 0 108 108" style="enable-background:new 0 0 108 108;" xml:space="preserve">
<style type="text/css">
	.st0{fill:#1976D2;}
	.st1{fill:none;}
	.st2{fill:none;stroke:#C9C0B9;stroke-width:0.994;}
</style>
<path id="Icon_metro-facebook" class="st0" d="M66.71,35.07H40.56c-3.61,0-6.53,2.92-6.54,6.53v26.14c0,3.61,2.93,6.54,6.53,6.54
	c0,0,0,0,0,0h13.08V57.13h-4.9v-4.9h4.9v-3.68c0-3.38,2.74-6.13,6.13-6.13c0,0,0,0,0,0h6.13v4.9h-6.13c-0.68,0-1.23,0.55-1.23,1.23
	v3.68h6.74l-1.23,4.9h-5.51v17.16h8.17c3.61,0,6.54-2.93,6.54-6.54c0,0,0,0,0-0.01V41.6C73.24,37.99,70.32,35.06,66.71,35.07
	L66.71,35.07z"/>
<g id="Ellipse_4">
	<circle class="st1" cx="53.9" cy="54.32" r="53.68"/>
	<circle class="st2" cx="53.9" cy="54.32" r="53.18"/>
</g>
</svg>
