<?xml version="1.0" encoding="utf-8"?>
<!-- Generator: Adobe Illustrator 25.0.0, SVG Export Plug-In . SVG Version: 6.00 Build 0)  -->
<svg version="1.1" id="圖層_1" xmlns="http://www.w3.org/2000/svg" xmlns:xlink="http://www.w3.org/1999/xlink" x="0px" y="0px"
	 viewBox="0 0 174.91 215.16" style="enable-background:new 0 0 174.91 215.16;" xml:space="preserve">
<style type="text/css">
	.st0{fill-rule:evenodd;clip-rule:evenodd;fill:#DC000C;}
	.st1{fill:#F5CFE2;stroke:#F5CFE2;stroke-width:0.2151;stroke-miterlimit:22.926;}
</style>
<g id="logo" transform="translate(-278.423 -14.642)">
	<path id="Path_160" class="st0" d="M283.2,192.17h7.08l2.55,14.24l3.72-14.24h7.06l3.74,14.24l2.55-14.24h7.04l-5.32,25.5h-7.31
		l-4.23-16.06l-4.21,16.06h-7.31L283.2,192.17L283.2,192.17z M317.75,192.17h19.98v5.44h-12.51v4.06h11.6v5.2h-11.6v5.02h12.87v5.78
		h-20.34L317.75,192.17L317.75,192.17z M340.78,192.17h7.47v25.5h-7.47V192.17z M351.97,192.17h7.46v19.22h11.64v6.28h-19.1
		L351.97,192.17L351.97,192.17z M387.66,192.17h7.44v15.21c0.01,1.45-0.22,2.89-0.67,4.27c-0.43,1.31-1.14,2.51-2.09,3.51
		c-0.83,0.92-1.85,1.64-2.99,2.11c-1.67,0.6-3.44,0.89-5.22,0.85c-1.29-0.01-2.57-0.09-3.84-0.26c-1.21-0.12-2.39-0.47-3.48-1.03
		c-0.99-0.56-1.86-1.31-2.56-2.2c-0.73-0.86-1.27-1.86-1.59-2.94c-0.43-1.4-0.66-2.85-0.69-4.31v-15.21h7.45v15.57
		c-0.07,1.19,0.32,2.36,1.09,3.26c1.72,1.56,4.34,1.57,6.06,0.02c0.78-0.91,1.17-2.09,1.09-3.28L387.66,192.17L387.66,192.17z
		 M398.47,192.17h6.97l9.09,14.11v-14.11h7.02v25.5h-7.03l-9.04-14v14h-7.01L398.47,192.17L398.47,192.17z M437.01,208.43v-5.3
		h11.52V214c-1.78,1.36-3.75,2.45-5.85,3.24c-1.95,0.61-3.99,0.9-6.03,0.86c-2.43,0.1-4.84-0.43-7-1.55
		c-1.84-1.06-3.31-2.67-4.2-4.61c-1.03-2.2-1.54-4.6-1.49-7.02c-0.06-2.52,0.5-5.02,1.63-7.27c1.06-2.02,2.73-3.66,4.78-4.68
		c2.08-0.91,4.34-1.34,6.6-1.23c2.02-0.09,4.05,0.17,5.98,0.77c1.29,0.49,2.42,1.31,3.29,2.38c0.94,1.21,1.61,2.6,1.97,4.08
		l-7.19,1.35c-0.24-0.88-0.78-1.66-1.51-2.21c-0.8-0.54-1.74-0.81-2.7-0.77c-1.51-0.06-2.97,0.61-3.91,1.8
		c-0.97,1.21-1.46,3.1-1.46,5.7c0,2.76,0.49,4.73,1.48,5.91c1.02,1.2,2.54,1.86,4.11,1.78c0.81,0,1.61-0.13,2.38-0.39
		c0.91-0.33,1.79-0.77,2.6-1.3v-2.41L437.01,208.43z"/>
	<path id="Path_161" class="st0" d="M284.93,229.53v-6.26h1.83v6.26H284.93z M293.65,229.53v-6.26h1.78l3.71,4.18v-4.18h1.7v6.26
		h-1.84l-3.65-4.08v4.08H293.65z M309.94,229.53v-5.2h-2.69v-1.06h7.2v1.06h-2.68v5.2H309.94z M320.77,229.53v-6.26h6.71v1.06h-4.89
		v1.39h4.55v1.05h-4.55v1.7h5.06v1.06H320.77z M334.34,229.53v-6.26h3.85c0.71-0.02,1.41,0.03,2.11,0.17c0.4,0.09,0.77,0.3,1.05,0.6
		c0.54,0.57,0.52,1.48-0.05,2.02c-0.05,0.05-0.1,0.09-0.16,0.13c-0.53,0.35-1.15,0.55-1.79,0.58c0.35,0.13,0.68,0.31,0.98,0.53
		c0.38,0.31,0.73,0.65,1.04,1.01l1.11,1.22h-2.19l-1.32-1.36c-0.3-0.33-0.62-0.63-0.96-0.92c-0.16-0.12-0.35-0.21-0.55-0.26
		c-0.3-0.06-0.61-0.08-0.92-0.07h-0.37v2.61L334.34,229.53z M336.17,225.91h1.35c0.55,0.02,1.1-0.01,1.65-0.08
		c0.19-0.04,0.37-0.13,0.51-0.27c0.12-0.12,0.19-0.29,0.19-0.47c0.01-0.2-0.09-0.39-0.24-0.51c-0.2-0.14-0.44-0.23-0.69-0.25
		c-0.15-0.01-0.59-0.02-1.34-0.02h-1.43L336.17,225.91L336.17,225.91z M348.62,229.53v-6.26h1.78l3.71,4.18v-4.18h1.7v6.26h-1.84
		l-3.65-4.08v4.08H348.62z M371.04,229.53h-1.99l-0.79-1.42h-3.62l-0.75,1.42h-1.94l3.53-6.26h1.94L371.04,229.53L371.04,229.53z
		 M367.67,227.05l-1.25-2.32l-1.22,2.32H367.67z M378.24,229.53v-5.2h-2.69v-1.06h7.2v1.06h-2.68v5.2H378.24z M389.01,229.53v-6.26
		h1.83v6.26H389.01z M397.34,226.44c-0.02-0.56,0.12-1.12,0.41-1.61c0.22-0.34,0.51-0.63,0.84-0.86c0.36-0.25,0.75-0.44,1.17-0.56
		c0.64-0.17,1.29-0.26,1.95-0.25c1.13-0.06,2.25,0.24,3.2,0.86c1.32,0.97,1.59,2.83,0.62,4.14c-0.17,0.23-0.38,0.44-0.61,0.62
		c-0.95,0.61-2.06,0.91-3.19,0.86c-1.13,0.06-2.26-0.24-3.21-0.85C397.76,228.26,397.3,227.37,397.34,226.44L397.34,226.44z
		 M399.22,226.4c-0.04,0.62,0.23,1.22,0.71,1.61c0.52,0.38,1.16,0.57,1.8,0.55c0.64,0.03,1.27-0.17,1.79-0.54
		c0.48-0.4,0.74-1.01,0.7-1.63c0.04-0.61-0.21-1.21-0.68-1.61c-1.11-0.71-2.53-0.71-3.64,0.01c-0.48,0.39-0.74,1-0.7,1.62
		L399.22,226.4z M412.7,229.53v-6.26h1.78l3.71,4.18v-4.18h1.7v6.26h-1.84l-3.65-4.08v4.08L412.7,229.53z M435.12,229.53h-1.99
		l-0.79-1.42h-3.62l-0.75,1.42h-1.94l3.53-6.26h1.94L435.12,229.53z M431.75,227.05l-1.25-2.32l-1.22,2.32H431.75z M441.27,229.53
		v-6.21h1.83v5.15h4.55v1.06L441.27,229.53z"/>
	<circle id="Ellipse_20" class="st1" cx="365.86" cy="102.45" r="87.09"/>
	<path id="Path_162" class="st0" d="M392.15,129.13c19.39,8.9,33.16,18.61,37.06,29.73l1.89-0.63c-5.15-12.41-19.76-22.16-38-30.89
		L392.15,129.13z"/>
	<path id="Path_163" class="st0" d="M407.92,110.67c18.49,7.66,31.48,16.3,34.83,26.67l1.87-0.67
		c-4.51-11.54-18.32-20.19-35.7-27.74L407.92,110.67z"/>
	<path id="Path_164" class="st0" d="M357.48,85.08c5.74-33.49,19.55-49.58,38.06-60.37l-1.45-1.67
		c-30.13,19.62-33.63,42.64-38.22,61.29L357.48,85.08z"/>
	<path id="Path_165" class="st0" d="M330.94,87.56c-0.75-32.07,11.13-58.23,32.48-69.59l-0.91-1.34
		c-27.27,16.6-32.57,43.96-33.23,70.29L330.94,87.56z"/>
	<path id="Path_166" class="st0" d="M282.18,116.31c48.68-3.72,84.92,19.74,104.87,68.92l1.88-0.6
		c-21.41-49.41-60.03-77.43-107.13-69.94L282.18,116.31z"/>
	<path id="Path_167" class="st0" d="M333.23,93.19l-29.98-4.48c-5.85-0.94-5.99-5.46-17.54-2.82l9.22,10.25l46.27,6.7l0.36,1.81
		l-45.8-7.59l7.71,10.56l7.78-0.45l6.58,5.8l2.64-3.97c0.56-0.84,11.23,1.86,14.75,3.89c3.51,2.03,31.28,10.25,41.66,18.65
		l-13.47-10.91l25.25,9.16l-16.35-12.33l27.34,3.91l-24.68-11.72l31.52,7.12l-25.16-10.98l25.13,3.96l-20.61-7.26l28.58-6.39
		l-16.1,0.02l46.65-11.56l-71.44,10.29c-9.82-5.06-24.01-3.83-27.72-1.78C339.09,97.01,336.73,94.8,333.23,93.19L333.23,93.19z
		 M368.57,90.48l39.6-5.49l-33.15,8.6L368.57,90.48L368.57,90.48z M347.55,95.06c4.78-1.27,10.32-0.81,16.27-1.17l1.7,0.3
		l-11.63,2.71L347.55,95.06z"/>
</g>
</svg>
