<?xml version="1.0" encoding="utf-8"?>
<!-- Generator: Adobe Illustrator 25.0.0, SVG Export Plug-In . SVG Version: 6.00 Build 0)  -->
<svg version="1.1" id="圖層_1" xmlns="http://www.w3.org/2000/svg" xmlns:xlink="http://www.w3.org/1999/xlink" x="0px" y="0px"
	 viewBox="0 0 108 108" style="enable-background:new 0 0 108 108;" xml:space="preserve">
<style type="text/css">
	.st0{fill:#FFFFFF;}
	.st1{fill:#00C200;}
	.st2{fill:none;}
	.st3{fill:none;stroke:#C9C0B9;stroke-width:0.9897;}
</style>
<circle class="st0" cx="54" cy="54" r="16"/>
<path id="Icon_awesome-line" class="st1" d="M58.15,50.13v6.07c0,0.15-0.12,0.27-0.27,0.27c0,0,0,0-0.01,0H56.9
	c-0.09,0-0.17-0.04-0.22-0.11l-2.78-3.76v3.6c0,0.15-0.12,0.27-0.27,0.27c0,0,0,0-0.01,0h-0.97c-0.15,0-0.27-0.12-0.27-0.27
	c0,0,0,0,0-0.01v-6.07c0-0.15,0.12-0.27,0.27-0.27c0,0,0,0,0.01,0h0.97c0.09,0,0.17,0.04,0.22,0.12l2.78,3.76v-3.61
	c0-0.15,0.12-0.27,0.27-0.27c0,0,0,0,0.01,0h0.97C58.02,49.86,58.14,49.98,58.15,50.13C58.15,50.13,58.15,50.13,58.15,50.13
	L58.15,50.13z M51.14,49.86h-0.97c-0.15,0-0.27,0.12-0.27,0.27c0,0,0,0,0,0.01v6.07c0,0.15,0.12,0.27,0.27,0.27c0,0,0,0,0.01,0h0.97
	c0.15,0,0.27-0.12,0.27-0.27c0,0,0,0,0-0.01v-6.07C51.41,49.98,51.29,49.86,51.14,49.86z M48.8,54.95h-2.66v-4.82
	c0-0.15-0.12-0.27-0.27-0.27c0,0,0,0-0.01,0h-0.97c-0.15,0-0.27,0.12-0.27,0.27c0,0,0,0,0,0.01v6.07c0,0.07,0.03,0.14,0.08,0.19
	c0.05,0.05,0.12,0.08,0.19,0.08h3.9c0.15,0,0.27-0.12,0.27-0.27c0,0,0,0,0-0.01v-0.97C49.06,55.08,48.94,54.95,48.8,54.95z
	 M63.27,49.86h-3.9c-0.15,0-0.27,0.12-0.27,0.27v6.07c0,0.15,0.12,0.27,0.27,0.27h3.9c0.15,0,0.27-0.12,0.27-0.27c0,0,0,0,0-0.01
	v-0.97c0-0.15-0.12-0.27-0.27-0.27c0,0,0,0-0.01,0h-2.66v-1.03h2.66c0.15,0,0.27-0.12,0.27-0.27c0,0,0,0,0-0.01v-0.98
	c0-0.15-0.12-0.27-0.27-0.27c0,0,0,0-0.01,0h-2.66v-1.03h2.66c0.15,0,0.27-0.12,0.27-0.27c0,0,0,0,0-0.01v-0.97
	C63.54,49.98,63.42,49.87,63.27,49.86L63.27,49.86z M73.17,42.41v24.36c-0.02,3.83-3.14,6.93-6.98,6.91H41.83
	c-3.83-0.02-6.92-3.14-6.92-6.97V42.35c0.02-3.83,3.14-6.93,6.98-6.92h24.36C70.09,35.45,73.18,38.57,73.17,42.41z M67.91,52.87
	c0-6.24-6.25-11.31-13.93-11.31s-13.93,5.07-13.93,11.31c0,5.58,4.95,10.26,11.65,11.15c1.63,0.35,1.44,0.95,1.08,3.14
	c-0.06,0.35-0.28,1.37,1.2,0.75S62,63.2,64.93,59.83C66.79,57.99,67.85,55.49,67.91,52.87z"/>
<g id="Ellipse_5">
	<circle class="st2" cx="54.04" cy="54.56" r="53.44"/>
	<circle class="st3" cx="54.04" cy="54.56" r="52.95"/>
</g>
</svg>
