<?xml version="1.0" encoding="utf-8"?>
<!-- Generator: Adobe Illustrator 25.0.0, SVG Export Plug-In . SVG Version: 6.00 Build 0)  -->
<svg version="1.1" id="圖層_1" xmlns="http://www.w3.org/2000/svg" xmlns:xlink="http://www.w3.org/1999/xlink" x="0px" y="0px"
	 viewBox="0 0 27 27" style="enable-background:new 0 0 27 27;" xml:space="preserve">
<style type="text/css">
	.st0{fill:#FFFFFF;}
</style>
<path id="Icon_ionic-ios-send" class="st0" d="M26.37,3.15L0.48,6.12c-0.3,0.05-0.5,0.33-0.46,0.62C0.04,6.88,0.11,7,0.21,7.08
	l5.11,5.38c0.3,0.32,0.77,0.41,1.17,0.24l15.4-6.78c0.1-0.04,0.33-0.12,0.39-0.02c0.05,0.1-0.12,0.25-0.22,0.31L7.88,14.87
	c-0.39,0.24-0.58,0.71-0.46,1.16l2.06,7.71c0.05,0.3,0.33,0.5,0.63,0.45c0.12-0.02,0.23-0.08,0.32-0.17L26.86,4.06
	c0.2-0.23,0.18-0.57-0.04-0.77C26.69,3.18,26.53,3.13,26.37,3.15z"/>
</svg>
