<?xml version="1.0" encoding="utf-8"?>
<!-- Generator: Adobe Illustrator 25.0.0, SVG Export Plug-In . SVG Version: 6.00 Build 0)  -->
<svg version="1.1" id="圖層_1" xmlns="http://www.w3.org/2000/svg" xmlns:xlink="http://www.w3.org/1999/xlink" x="0px" y="0px"
	 viewBox="0 0 26.69 27.69" style="enable-background:new 0 0 26.69 27.69;" xml:space="preserve">
<style type="text/css">
	.st0{fill:#121212;}
	.st1{fill:#DC000C;}
	.st2{fill:#FFFFFF;}
	.st3{font-family:'Arial-BoldMT';}
	.st4{font-size:11.3867px;}
	.st5{letter-spacing:1;}
</style>
<g id="shopcart" transform="translate(-1563.309 -41)">
	<path id="Icon_material-shopping-cart" class="st0" d="M1568.89,64.43c-0.96,0-1.74,0.78-1.74,1.74s0.78,1.74,1.74,1.74
		s1.74-0.78,1.74-1.74C1570.63,65.21,1569.85,64.43,1568.89,64.43C1568.89,64.43,1568.89,64.43,1568.89,64.43z M1563.68,50.52v1.74
		h1.74l3.13,6.6l-1.17,2.13c-0.14,0.25-0.22,0.54-0.22,0.83c0,0.96,0.78,1.74,1.74,1.74h10.43v-1.74h-10.06
		c-0.12,0-0.22-0.09-0.22-0.21c0,0,0,0,0,0l0.03-0.1l0.78-1.42h6.48c0.63,0,1.22-0.34,1.52-0.9l3.11-5.64
		c0.07-0.13,0.1-0.27,0.1-0.42c0-0.48-0.39-0.87-0.87-0.87h-12.85l-0.82-1.74H1563.68z M1577.58,64.43c-0.96,0-1.74,0.78-1.74,1.74
		s0.78,1.74,1.74,1.74c0.96,0,1.74-0.78,1.74-1.74C1579.32,65.21,1578.54,64.43,1577.58,64.43
		C1577.58,64.43,1577.58,64.43,1577.58,64.43z"/>
	<circle id="Ellipse_21" class="st1" cx="1582.37" cy="48.33" r="7.01"/>
	<text transform="matrix(1 0 0 1 1578.8636 52.7129)" class="st2 st3 st4 st5">0</text>
</g>
</svg>
