<?xml version="1.0" encoding="utf-8"?>
<!-- Generator: Adobe Illustrator 25.0.0, SVG Export Plug-In . SVG Version: 6.00 Build 0)  -->
<svg version="1.1" id="圖層_1" xmlns="http://www.w3.org/2000/svg" xmlns:xlink="http://www.w3.org/1999/xlink" x="0px" y="0px"
	 viewBox="0 0 60 61" style="enable-background:new 0 0 60 61;" xml:space="preserve">
<style type="text/css">
	.st0{fill:#FFFFFF;}
	.st1{fill:none;stroke:#9E958E;stroke-width:0.9763;}
	.st2{fill:#9E958E;}
</style>
<g id="Ellipse_6">
	<ellipse class="st0" cx="30.41" cy="30.22" rx="29.29" ry="29.78"/>
	<ellipse class="st1" cx="30.41" cy="30.22" rx="28.8" ry="29.29"/>
</g>
<path id="Icon_simple-line" class="st2" d="M39.04,28.53c0.41,0,0.74,0.33,0.74,0.74c0,0.41-0.33,0.74-0.74,0.74h-2.06v1.32h2.06
	c0.41,0,0.74,0.33,0.74,0.74c0,0.41-0.33,0.74-0.74,0.74c0,0,0,0,0,0h-2.8c-0.41,0-0.73-0.33-0.74-0.74v-5.59
	c0-0.41,0.33-0.74,0.74-0.74h2.8c0.41,0,0.74,0.33,0.74,0.74s-0.33,0.74-0.74,0.74h-2.06v1.32H39.04z M34.52,32.06
	c0,0.32-0.2,0.6-0.51,0.7c-0.08,0.02-0.15,0.04-0.23,0.04c-0.23,0.01-0.46-0.1-0.6-0.29l-2.86-3.89v3.45
	c0.01,0.41-0.3,0.75-0.71,0.76s-0.75-0.3-0.76-0.71c0-0.02,0-0.04,0-0.05v-5.59c0-0.32,0.2-0.6,0.5-0.7
	c0.07-0.03,0.15-0.04,0.23-0.04c0.23,0.01,0.44,0.11,0.58,0.29l2.89,3.91v-3.46c0-0.41,0.33-0.74,0.74-0.74s0.74,0.33,0.74,0.74
	V32.06L34.52,32.06z M27.79,32.06c0,0.41-0.33,0.74-0.74,0.74s-0.74-0.33-0.74-0.74v-5.59c0-0.41,0.33-0.74,0.74-0.74
	s0.74,0.33,0.74,0.74V32.06z M24.9,32.8h-2.8c-0.41,0-0.73-0.33-0.74-0.74v-5.59c0-0.41,0.33-0.74,0.74-0.74
	c0.41,0,0.74,0.33,0.74,0.74l0,0v4.85h2.06c0.41,0,0.74,0.33,0.74,0.74C25.64,32.47,25.31,32.8,24.9,32.8 M44.48,29.06
	c0-6.3-6.31-11.42-14.07-11.42s-14.07,5.13-14.07,11.42c0,5.64,5.01,10.36,11.76,11.26c0.46,0.1,1.08,0.3,1.24,0.69
	c0.11,0.41,0.13,0.85,0.04,1.27l-0.2,1.2c-0.05,0.35-0.28,1.39,1.23,0.76c1.51-0.63,8.1-4.78,11.06-8.18
	C43.36,34.2,44.43,31.69,44.48,29.06"/>
</svg>
