<?xml version="1.0" encoding="utf-8"?>
<!-- Generator: Adobe Illustrator 25.0.0, SVG Export Plug-In . SVG Version: 6.00 Build 0)  -->
<svg version="1.1" id="圖層_1" xmlns="http://www.w3.org/2000/svg" xmlns:xlink="http://www.w3.org/1999/xlink" x="0px" y="0px"
	 viewBox="0 0 18.72 18.72" style="enable-background:new 0 0 18.72 18.72;" xml:space="preserve">
<style type="text/css">
	.st0{fill:#401D01;}
</style>
<path id="Icon_material-perm-phone-msg" class="st0" d="M17.19,12.72c-1.16,0-2.32-0.18-3.43-0.55c-0.34-0.11-0.72-0.02-0.98,0.23
	l-2.11,2.11c-2.72-1.39-4.94-3.6-6.33-6.32l2.11-2.12C6.72,5.82,6.81,5.45,6.7,5.1C6.34,4,6.15,2.84,6.15,1.68
	c0-0.53-0.43-0.96-0.96-0.96H1.83c-0.53,0-0.96,0.43-0.96,0.96C0.87,10.69,8.18,18,17.19,18c0,0,0,0,0,0c0.53,0,0.96-0.43,0.96-0.96
	v-3.36C18.15,13.15,17.72,12.72,17.19,12.72z M9.51,0.72v9.6l2.88-2.88h5.76V0.72H9.51z"/>
</svg>
