<?xml version="1.0" encoding="utf-8"?>
<!-- Generator: Adobe Illustrator 25.0.0, SVG Export Plug-In . SVG Version: 6.00 Build 0)  -->
<svg version="1.1" id="圖層_1" xmlns="http://www.w3.org/2000/svg" xmlns:xlink="http://www.w3.org/1999/xlink" x="0px" y="0px"
	 viewBox="0 0 319.68 36.53" style="enable-background:new 0 0 319.68 36.53;" xml:space="preserve">
<style type="text/css">
	.st0{fill:#D4C6B0;stroke:#D4C6B0;stroke-width:0.9389;}
	.st1{fill:#D4C6B0;stroke:#D4C6B0;stroke-width:0.9389;stroke-linecap:round;}
	.st2{fill:#D4C6B0;stroke:#D4C6B0;stroke-width:0.9389;stroke-linecap:square;}
</style>
<g id="Group_70" transform="translate(-565.965 -164.173)">
	<g id="Group_69">
		<g id="Group_60">
			<g id="Group_58">
				<g id="Group_56">
					<path id="Path_116" class="st0" d="M585.52,199.17l-2.17-2.64c0,0,0.46-4.17,9.11-5.38
						C592.46,191.15,585.41,193.16,585.52,199.17z"/>
				</g>
				<g id="Group_57">
					<path id="Path_117" class="st0" d="M585.52,181.91l-2.17,2.64c0,0,0.46,4.17,9.11,5.38
						C592.46,189.93,585.41,187.93,585.52,181.91z"/>
				</g>
			</g>
			<g id="Group_59">
				<path id="Path_118" class="st0" d="M575.97,190.54l3.65,1.74l8.67-1.74l-8.67-1.74L575.97,190.54z"/>
			</g>
		</g>
		<g id="Group_68">
			<g id="Group_66">
				<g id="Group_65">
					<g id="Group_63">
						<g id="Group_61">
							<path id="Path_119" class="st1" d="M860.75,165.66l4.06,0.4c0,0,3.13,3.91-3.15,12.24
								C861.66,178.3,865.92,170.65,860.75,165.66z"/>
						</g>
						<g id="Group_62" transform="translate(-2)">
							<path id="Path_120" class="st2" d="M878.12,180.24l-0.48-4.06c0,0-4.73-3.13-14.82,3.15
								C862.82,179.33,872.07,175.07,878.12,180.24z"/>
						</g>
					</g>
					<g id="Group_64">
						<path id="Path_121" class="st1" d="M876.12,164.88l-4.56,1.61l-5.85,8.8l8.8-5.85L876.12,164.88z"/>
					</g>
				</g>
			</g>
			<g id="Group_67">
				<path id="Path_122" class="st0" d="M825.74,191.08H582.97V190h242.77c15.67,0.04,30.71-6.19,41.76-17.3l0.76,0.76
					C857.01,184.78,841.7,191.12,825.74,191.08z"/>
			</g>
		</g>
	</g>
</g>
</svg>
