<?xml version="1.0" encoding="utf-8"?>
<!-- Generator: Adobe Illustrator 25.0.0, SVG Export Plug-In . SVG Version: 6.00 Build 0)  -->
<svg version="1.1" id="圖層_1" xmlns="http://www.w3.org/2000/svg" xmlns:xlink="http://www.w3.org/1999/xlink" x="0px" y="0px"
	 viewBox="0 0 21.22 18.56" style="enable-background:new 0 0 21.22 18.56;" xml:space="preserve">
<style type="text/css">
	.st0{fill:#401D01;}
</style>
<path id="Icon_metro-printer" class="st0" d="M5.37,0.54h9.98v2.49H5.37V0.54z M19.09,4.28H1.64c-0.69,0-1.25,0.56-1.25,1.25v6.24
	c0,0.69,0.56,1.25,1.25,1.25h3.74V18h9.98v-4.99h3.74c0.69,0,1.25-0.56,1.25-1.25V5.53C20.34,4.84,19.78,4.29,19.09,4.28z
	 M2.88,8.03c-0.69,0-1.25-0.56-1.25-1.25c0-0.69,0.56-1.25,1.25-1.25c0.69,0,1.25,0.56,1.25,1.25l0,0C4.13,7.47,3.57,8.03,2.88,8.03
	C2.88,8.03,2.88,8.03,2.88,8.03z M14.11,16.76H6.62v-6.24h7.48L14.11,16.76z"/>
</svg>
