<?xml version="1.0" encoding="utf-8"?>
<!-- Generator: Adobe Illustrator 25.0.0, SVG Export Plug-In . SVG Version: 6.00 Build 0)  -->
<svg version="1.1" id="圖層_1" xmlns="http://www.w3.org/2000/svg" xmlns:xlink="http://www.w3.org/1999/xlink" x="0px" y="0px"
	 viewBox="0 0 333.72 74.74" style="enable-background:new 0 0 333.72 74.74;" xml:space="preserve">
<style type="text/css">
	.st0{fill-rule:evenodd;clip-rule:evenodd;fill:#1A1311;}
	.st1{fill-rule:evenodd;clip-rule:evenodd;fill:#DC000C;}
	.st2{fill:#F5CFE2;}
	.st3{fill-rule:evenodd;clip-rule:evenodd;fill:#DC000C;stroke:#DC000C;stroke-width:0.567;stroke-miterlimit:22.926;}
</style>
<g id="logo" transform="translate(175.248 -719.243)">
	<path id="Path_9" class="st0" d="M-97.89,743.71v-2.11h11.07v2.11H-97.89z M-95.49,746.23c0.4-0.99,0.67-1.75,0.83-2.28l2.55,0.41
		c-0.16,0.42-0.28,0.74-0.38,0.98c-0.1,0.24-0.21,0.54-0.32,0.89h6.32v1.96h-1.69c-0.44,1.66-1.16,3.22-2.14,4.63
		c0.28,0.16,0.57,0.31,0.89,0.48c0.29,0.16,0.59,0.33,0.89,0.53l-1.6,1.81c-0.52-0.39-1.08-0.74-1.66-1.04
		c-1.36,1.37-3.58,2.43-6.64,3.18l-1.4-2.02c2.09-0.35,4.08-1.14,5.84-2.31c-1.58-0.71-3.2-1.32-4.86-1.81
		c0.92-1.06,1.74-2.22,2.43-3.44h-2.34v-1.96L-95.49,746.23z M-97.65,736.73v-1.98h-6.5v-2.32h6.5v-2.11h2.85v2.11h3.35v2.32h-3.35
		v1.98H-97.65z M-82.88,735.96h-1.07v-1.22h7.42v-2.32h-7.42v-2.11h-2.82v2.11h-3.29v2.32h3.29v1.48h1.37v1.57h-17.19v5.22
		c0,5.44-0.58,9.77-1.75,12.97l2.38,1.98c1.41-4.52,2.08-9.24,1.99-13.97v-3.86h14.54v0.32c-0.06,3.69,0.31,7.38,1.1,10.98
		c-1.77,2.09-3.95,3.8-6.41,5.02l2.02,1.75c2-1,3.79-2.38,5.26-4.06c0.99,2.73,2.17,4.09,3.56,4.09c1.4,0,2.59-1.52,3.56-4.57
		l-2.02-1.66c-0.36,2.21-0.79,3.32-1.31,3.32c-0.28,0-0.63-0.5-1.07-1.48c-0.36-0.67-0.59-1.41-0.68-2.17
		c1.58-2.64,2.89-5.43,3.89-8.34l-2.31-0.92c-0.62,2.1-1.46,4.13-2.52,6.05c-0.39-2.76-0.56-5.55-0.51-8.34h6.38v-2.34h-2.76
		l2.08-0.95c-0.62-0.71-1.33-1.34-2.11-1.87l-2.02,0.86c0.72,0.6,1.39,1.26,2.02,1.96h-3.59V735.96L-82.88,735.96z M-92.49,751.86
		c0.87-1.11,1.55-2.35,2.02-3.68h-3.24c-0.45,0.92-1,1.78-1.63,2.58C-94.22,751.18-93.26,751.55-92.49,751.86z M-60.52,738.46h3.27
		v2.28h-13.8v-2.28h3.32c-0.29-1.31-0.68-2.59-1.19-3.83h-1.6v-2.22h5.22c-0.23-0.64-0.54-1.25-0.92-1.81l2.79-0.27
		c0.4,0.64,0.7,1.35,0.89,2.08h4.74v2.22h-1.57C-59.67,735.93-60.05,737.21-60.52,738.46L-60.52,738.46z M-58.47,754.36
		c0.12,1-0.1,2.02-0.62,2.88c-0.72,0.56-1.64,0.81-2.55,0.68h-1.72l-0.65-2.28l1.84,0.12c0.52,0.08,1.01-0.27,1.1-0.79
		c0.01-0.09,0.02-0.18,0-0.28v-1.81h-6.26v5.37h-2.61v-16.02h11.48V754.36z M-53.67,754.51c-0.07,0.5,0.27,0.97,0.77,1.04
		c0.09,0.01,0.18,0.01,0.26,0h5.56c0.65,0,1.06-0.18,1.22-0.53c0.21-0.62,0.32-1.27,0.32-1.93l2.44,0.92
		c-0.02,1.13-0.39,2.24-1.07,3.15c-0.86,0.67-1.95,0.96-3.03,0.83h-5.74c-0.99,0.12-1.98-0.16-2.76-0.77
		c-0.58-0.85-0.83-1.88-0.71-2.91v-14.24h9.36v-1.99h-9.39v-7.75h2.79v1.4h9.91v2.31h-9.9v1.75h9.29v6.5h-9.3v1.48h9.03v2.05h-9.02
		v1.48h9.15v2.08h-9.15v1.6h9.42v2.11h-9.42L-53.67,754.51L-53.67,754.51z M-67.34,750.71h6.26v-2.08h-6.26L-67.34,750.71
		L-67.34,750.71z M-62,734.63h-4.25c0.22,0.5,0.39,1.02,0.51,1.54c0.2,0.75,0.4,1.51,0.62,2.28h1.9
		C-62.67,737.23-62.26,735.95-62,734.63z M-67.34,746.5h6.26v-1.9h-6.26V746.5z M-13.05,753.65h-21.51v-13.03h21.51L-13.05,753.65
		L-13.05,753.65z M-26.38,755.85c-3.29,1.21-6.72,2.01-10.21,2.37l-0.98-2.52c3.35-0.23,6.67-0.83,9.88-1.81L-26.38,755.85
		L-26.38,755.85z M-11.1,758.25c-3.5-0.99-7.06-1.76-10.65-2.31l1.13-2.11c3.51,0.4,6.99,1.03,10.42,1.87L-11.1,758.25L-11.1,758.25
		z M-29.08,734.9l2.19-0.71c0.93,1.54,1.68,3.19,2.23,4.9l-2.5,0.89c-0.06-0.22-0.12-0.46-0.18-0.71c-0.02-0.21-0.07-0.42-0.15-0.62
		c-3.17,0.85-6.39,1.49-9.64,1.93l-0.68-2.61c0.35-0.02,0.69-0.03,1.01-0.06c0.29-0.04,0.57-0.06,0.86-0.06v-5.81
		c3.33-0.12,6.63-0.66,9.83-1.6l1.42,2.11c-2.77,0.72-5.6,1.22-8.46,1.48v3.53c1.94-0.31,3.59-0.62,4.95-0.92
		C-28.61,735.77-28.9,735.19-29.08,734.9L-29.08,734.9z M-11.04,731.07h-13.03v2.38h3.94c-0.16,2.1-1.68,3.55-4.57,4.36l1.54,2.2
		c3.46-1.11,5.33-3.3,5.61-6.56h3.77c-0.01,0.77-0.06,1.55-0.15,2.32c-0.1,0.89-0.55,1.33-1.34,1.33c-0.77,0-1.55-0.03-2.31-0.12
		l0.59,2.49c0.42,0.04,0.89,0.06,1.43,0.06c1.8,0,2.97-0.28,3.5-0.83C-11.49,738.13-11.16,735.58-11.04,731.07L-11.04,731.07z
		 M-31.84,747.84h16.02v-1.69h-16.02C-31.84,746.14-31.84,747.84-31.84,747.84z M-31.84,751.45h16.02v-1.84h-16.02
		C-31.84,749.61-31.84,751.45-31.84,751.45z M-15.81,742.85h-16.02v1.51h16.02V742.85L-15.81,742.85z M-4.64,747.13
		c3.7-1.07,6.39-2.52,8.07-4.36h-4.81v-11.34h21.78v11.34H7.08c-0.32,0.38-0.6,0.73-0.86,1.07c-0.28,0.29-0.63,0.64-1.07,1.04h16.68
		c-0.12,6.27-0.56,10.04-1.31,11.3c-0.75,1.29-2.5,1.93-5.25,1.93c-0.59,0-1.12-0.01-1.57-0.03l-0.89-2.76
		c0.78,0.1,1.56,0.15,2.34,0.15c0.79,0.07,1.59-0.09,2.29-0.47c0.45-0.3,0.78-1.22,0.98-2.76s0.32-3.23,0.39-5.04h-2.08
		c-1.08,2.72-2.92,5.07-5.31,6.77c-2.52,1.97-5.43,3.36-8.54,4.09l-1.78-2.38c6.45-1.72,10.64-4.55,12.56-8.51h-3.38
		c-2.04,3.21-5.95,5.64-11.72,7.3l-1.63-2.46c4.69-1.13,8-2.76,9.94-4.9H2.51c-1.71,1.03-3.52,1.89-5.4,2.55L-4.64,747.13
		L-4.64,747.13z M17.44,733.76H1.56v2.08h15.88C17.44,735.84,17.44,733.76,17.44,733.76z M1.56,740.38h15.88v-2.34H1.56L1.56,740.38
		L1.56,740.38z M34.62,744.18c-1.38,1.31-2.85,2.53-4.39,3.65l-1.69-2.67c3.67-2.14,6.79-5.11,9.11-8.66h-8.61v-2.7h10.12
		c0.63-1.1,1.16-2.25,1.57-3.44l3.12,0.51c-0.35,1.01-0.78,1.99-1.28,2.94h13.95v2.7H41.18c-0.49,0.93-1.09,1.81-1.78,2.61h14.54
		v15.05c0.12,1.06-0.17,2.13-0.8,2.99c-0.52,0.56-1.59,0.83-3.21,0.83h-3.65l-0.6-2.85l3.71,0.15c0.41,0.04,0.82-0.02,1.19-0.18
		c0.18-0.14,0.26-0.56,0.26-1.28v-1.93H37.71v6.41h-3.09V744.18L34.62,744.18z M37.72,746.7v2.64h13.12v-2.64H37.72z M37.72,741.75
		v2.47h13.12v-2.47H37.72z M81.65,744.51c0.16,1.54,0.61,3.03,1.34,4.39c1.53-1.01,2.89-2.25,4.04-3.68l2.11,1.96
		c-1.41,1.52-2.99,2.86-4.72,4.01c1.44,1.96,3.25,3.6,5.34,4.84l-1.69,2.25c-4.97-2.96-8.3-8.04-9.05-13.77h-3v9.65
		c0.89-0.28,1.75-0.54,2.58-0.78c0.84-0.25,1.66-0.55,2.46-0.89v2.82c-3.18,1.21-6.45,2.16-9.79,2.82l-0.54-2.88
		c0.87-0.1,1.74-0.27,2.58-0.5v-23.38H88.1v13.14L81.65,744.51z M72.02,733.38v-1.96h-9.67v26.86h2.73v-24.24h4.13
		c-0.58,2.33-1.33,4.62-2.22,6.85c1.66,3.03,2.49,5.26,2.49,6.68c0,0.97-0.53,1.45-1.6,1.45c-0.58,0-1.15-0.04-1.72-0.12l0.77,2.79
		c0.32,0.04,0.63,0.06,0.95,0.06c2.85,0,4.27-1.37,4.27-4.12c0-1.52-0.79-3.81-2.38-6.86C70.69,738.37,71.45,735.9,72.02,733.38
		L72.02,733.38z M76.02,741.95h9.38v-2.85h-9.38V741.95z M85.39,733.89h-9.38v2.73h9.38V733.89z M115.5,745.51
		c2.57,3.61,4.53,7.62,5.79,11.87l-3.09,0.89c-0.22-1.04-0.58-2.05-1.07-3c-3.24,0.34-9.95,0.82-20.12,1.43l-0.56-3.33
		c0.79,0.02,1.49,0.03,2.11,0.03c0.73,0,1.4-0.02,2.02-0.06c2.96-4.11,5.09-8.76,6.29-13.68l3.12,0.8
		c-1.32,4.5-3.28,8.79-5.81,12.73c4.03-0.03,8.05-0.3,12.05-0.8c-0.99-1.99-2.11-3.91-3.35-5.76L115.5,745.51L115.5,745.51z
		 M103.78,730.44c-1.61,4.85-4.66,9.1-8.76,12.16l2.35,2.26c4.23-3.51,7.41-8.12,9.17-13.33L103.78,730.44L103.78,730.44z
		 M114.58,731.06h-6.41v2.61h4.63c1.71,4.03,4.44,7.55,7.93,10.21l2.25-2.34C118.78,738.51,115.98,735.02,114.58,731.06
		L114.58,731.06z M130.94,742.78h16.53v9.89h-16.53L130.94,742.78L130.94,742.78z M149.51,737.24v2.73h-19.73v-2.73H149.51z
		 M155.1,731.69l-26.35-0.03v2.76h23.26v19.77c0.07,0.52-0.29,1-0.8,1.07c-0.09,0.01-0.18,0.01-0.27,0l-4.87-0.15l0.68,2.94h4.87
		c1.47,0.44,3.03-0.39,3.47-1.86c0.16-0.52,0.16-1.08,0-1.61L155.1,731.69L155.1,731.69z M144.56,745.4h-10.71v4.69h10.71
		L144.56,745.4z"/>
	<path id="Path_10" class="st1" d="M-99.69,783.03l-0.41-2.23c-0.1-0.53-0.25-1.26-0.45-2.21l-1.97-9.06l-0.72-3.06
		c1.02,0.02,1.84,0.03,2.47,0.03c0.71,0,1.53-0.01,2.47-0.03c0.22,1.32,0.39,2.28,0.52,2.9l1.02,4.88c0.21,1.05,0.44,2.33,0.7,3.85
		l0.4-1.7l1.44-5.6l1-4.33c1.11,0.02,2.04,0.03,2.81,0.03c0.83,0,1.76-0.01,2.8-0.03l0.76,5.1l1.06,6.5l0.47-1.78
		c0.09-0.31,0.18-0.62,0.28-0.93s0.3-0.94,0.61-1.88l1.48-4.66l0.69-2.35c0.98,0.01,1.78,0.01,2.42,0.01c0.72,0,1.52,0,2.41-0.01
		l-4.7,14.09l-0.75,2.46c-1.21-0.02-2.27-0.03-3.17-0.03c-0.96,0-2.01,0.01-3.16,0.03l-0.28-1.66l-1.06-5.78
		c-0.06-0.35-0.11-0.71-0.15-1.08c-0.05-0.37-0.1-0.94-0.19-1.72l-0.43,1.88c-0.1,0.42-0.22,0.84-0.33,1.27l-1.96,7.08
		c-1.22-0.02-2.23-0.03-3.04-0.03C-97.51,783.01-98.52,783.02-99.69,783.03L-99.69,783.03z M-74.77,783.03
		c0.2-2.08,0.35-3.83,0.44-5.24c0.1-1.41,0.19-3.28,0.28-5.61c0.09-2.33,0.14-3.87,0.14-4.64l-0.01-1.07
		c1.91,0.02,4.21,0.02,6.92,0.03c2.49,0,4.69-0.01,6.6-0.03l-0.03,0.4c-0.01,0.1-0.03,0.45-0.06,1.05l-0.07,1.32
		c-0.02,0.28-0.03,0.57-0.03,0.86c-1.56-0.07-2.86-0.1-3.92-0.1c-1.16,0-1.95,0-2.35,0.01s-1.04,0.02-1.91,0.05l-0.14,2.78
		c0.96,0.02,2.07,0.04,3.33,0.04c0.45,0,1.66-0.03,3.61-0.09c-0.08,1.03-0.16,2.27-0.23,3.7c-1.4-0.02-2.48-0.02-3.23-0.03
		c-1.12,0-2.37,0.02-3.75,0.08l-0.15,2.95h1.39c0.41,0,1.27-0.01,2.56-0.04l2.51-0.06c0.37-0.01,0.99-0.04,1.87-0.1
		c-0.09,1.2-0.18,2.44-0.24,3.72c-1.97-0.02-4.13-0.03-6.48-0.03l-5.33,0.01L-74.77,783.03L-74.77,783.03z M-57.1,783.03
		c0.47-6.49,0.7-11.49,0.7-14.99l-0.01-1.56c1.41,0.02,2.36,0.02,2.83,0.03c0.22,0,1.09-0.01,2.61-0.03
		c-0.15,1.82-0.27,3.54-0.36,5.16c-0.12,2.26-0.2,4.38-0.25,6.35c-0.05,1.97-0.08,3.65-0.08,5.04l-2.48-0.03
		C-54.61,783.01-55.6,783.02-57.1,783.03L-57.1,783.03z M-47.55,783.03c0.2-1.91,0.34-3.47,0.43-4.67c0.17-2.2,0.29-4.38,0.38-6.55
		s0.12-3.95,0.12-5.33c1.1,0.02,2.07,0.03,2.92,0.03c0.58,0,1.4-0.01,2.47-0.03l-0.29,4.4l-0.37,6.87l-0.05,1.69
		c1.39,0.03,2.3,0.04,2.72,0.04c2.13,0,3.74-0.03,4.83-0.09l-0.27,3.65c-2.13-0.02-4.15-0.03-6.07-0.03
		C-43.32,783.01-45.6,783.02-47.55,783.03L-47.55,783.03z M-30.93,766.48c1.26,0.02,2.15,0.03,2.66,0.03c0.65,0,1.51-0.01,2.58-0.03
		l-0.36,5.16c-0.07,0.97-0.13,1.88-0.16,2.73s-0.06,1.43-0.06,1.76c-0.01,0.52,0.04,1.03,0.14,1.54c0.07,0.38,0.24,0.74,0.48,1.05
		c0.26,0.3,0.6,0.53,0.98,0.65c0.42,0.15,0.86,0.22,1.31,0.22c0.37,0,0.74-0.05,1.09-0.16c0.26-0.08,0.5-0.2,0.71-0.36
		c0.19-0.14,0.35-0.31,0.49-0.5c0.19-0.27,0.34-0.56,0.45-0.87c0.15-0.41,0.24-0.84,0.29-1.27c0.07-0.53,0.17-1.73,0.29-3.61
		c0.11-1.6,0.19-3.06,0.24-4.39c-0.01-0.65,0.04-1.3,0.13-1.94h5.35l-0.58,8.61c-0.01,0.16-0.01,0.29-0.01,0.4
		c0.01,1.19-0.09,2.39-0.31,3.56c-0.16,0.66-0.45,1.27-0.87,1.8c-0.49,0.58-1.09,1.04-1.77,1.38c-0.83,0.42-1.72,0.72-2.64,0.86
		c-0.99,0.17-1.99,0.26-3,0.26c-0.88,0-1.75-0.06-2.62-0.19c-0.72-0.11-1.42-0.3-2.1-0.56c-0.57-0.22-1.12-0.52-1.62-0.87
		c-0.37-0.26-0.7-0.58-0.97-0.94c-0.24-0.35-0.42-0.74-0.53-1.15c-0.15-0.52-0.22-1.07-0.22-1.61c0-0.19,0.01-0.48,0.03-0.88
		s0.05-0.96,0.11-1.7l0.16-1.94c0.04-0.51,0.08-1.26,0.13-2.24L-30.93,766.48L-30.93,766.48z M-11.12,783.03l0.24-2.55l0.47-8.63
		l0.13-3.48v-1.89c1.25,0.02,2.36,0.02,3.32,0.03c0.69,0,1.65-0.01,2.89-0.03l5.21,9.42l0.72,1.38c0.08-1.36,0.17-3.26,0.25-5.72
		c0.09-2.45,0.13-4.15,0.13-5.08c1,0.02,1.79,0.03,2.39,0.03c0.27,0,1.07-0.01,2.38-0.03l-0.29,3.61L6.2,780.13l-0.07,2.9
		c-1.06-0.02-2.04-0.03-2.95-0.03c-0.76,0-1.81,0.01-3.16,0.03c-0.42-0.79-0.73-1.37-0.93-1.72l-2.03-3.45
		c-0.67-1.13-1.29-2.22-1.86-3.25c-0.37-0.66-0.75-1.38-1.15-2.16l-0.25,5.75l-0.12,4.84c-1-0.02-1.77-0.03-2.29-0.03
		C-9.06,783.01-9.89,783.02-11.12,783.03L-11.12,783.03z M20.21,773.41c1.1,0.02,2.16,0.03,3.16,0.03c1.71,0,3.05-0.01,4.02-0.03
		c-0.1,1.1-0.21,2.67-0.31,4.69c-0.1,2.03-0.17,3.55-0.19,4.59c-0.93,0.17-1.7,0.29-2.31,0.37c-0.61,0.08-1.34,0.15-2.2,0.21
		s-1.62,0.09-2.29,0.09c-1.08,0-2.17-0.09-3.23-0.27c-0.98-0.16-1.94-0.45-2.85-0.86c-0.81-0.38-1.52-0.93-2.09-1.61
		c-0.58-0.72-1.02-1.53-1.29-2.41c-0.3-0.93-0.46-1.91-0.46-2.89c-0.01-1.6,0.41-3.18,1.22-4.57c0.83-1.42,2.05-2.58,3.52-3.34
		c1.85-0.89,3.88-1.31,5.93-1.23c1.98,0.02,3.94,0.24,5.88,0.65c0,1.17,0.05,2.48,0.15,3.92c-0.58-0.19-1.05-0.34-1.41-0.44
		s-0.78-0.2-1.26-0.28s-0.94-0.15-1.37-0.19s-0.82-0.06-1.16-0.06c-0.86,0-1.71,0.12-2.52,0.38c-0.76,0.24-1.45,0.64-2.04,1.17
		c-0.57,0.52-1.01,1.17-1.28,1.89c-0.29,0.74-0.43,1.53-0.43,2.32c-0.01,0.77,0.15,1.53,0.48,2.22c0.33,0.65,0.88,1.18,1.54,1.48
		c0.74,0.35,1.54,0.52,2.36,0.51c0.8-0.01,1.59-0.12,2.36-0.32l0.12-2.58c-0.52-0.02-0.83-0.03-0.93-0.03l-1.28,0.01l0.08-1.49
		c0.01-0.16,0.02-0.4,0.04-0.7S20.21,773.93,20.21,773.41L20.21,773.41z"/>
	<path id="Path_11" class="st1" d="M34.73,778.66h-1.18v-7.78h1.18V778.66z M46.69,778.66h-1.16l-3.81-5.05
		c-0.03-0.03-0.07-0.1-0.14-0.2s-0.14-0.21-0.21-0.32s-0.15-0.23-0.21-0.34s-0.12-0.2-0.15-0.26v6.17h-1.09v-7.78h1.24l3.63,4.88
		c0.06,0.08,0.13,0.18,0.21,0.3s0.16,0.24,0.23,0.36s0.15,0.24,0.21,0.35s0.12,0.2,0.15,0.27v-6.16h1.09L46.69,778.66L46.69,778.66z
		 M56.38,771.89h-1.96v6.77h-1.18v-6.77h-1.97v-1.01h5.11L56.38,771.89L56.38,771.89z M64.84,778.66h-3.89v-7.78h3.88v1.01h-2.71
		v2.36h2.72v1h-2.72v2.41h2.72L64.84,778.66L64.84,778.66z M73.18,772.96c0.02-0.32-0.13-0.64-0.4-0.82
		c-0.38-0.2-0.8-0.29-1.23-0.26h-0.64v2.38h0.58c0.44,0.03,0.89-0.09,1.25-0.34C73.03,773.69,73.2,773.33,73.18,772.96L73.18,772.96
		z M75.01,778.66h-1.4l-2.17-3.43h-0.54v3.43h-1.18v-7.78h1.76c0.39,0,0.77,0.03,1.15,0.1c0.33,0.06,0.64,0.17,0.93,0.34
		c0.26,0.15,0.47,0.37,0.62,0.63c0.16,0.3,0.24,0.64,0.23,0.98c0,0.27-0.05,0.54-0.15,0.79c-0.1,0.23-0.23,0.44-0.4,0.62
		c-0.17,0.18-0.36,0.32-0.58,0.44c-0.21,0.12-0.43,0.2-0.67,0.25L75.01,778.66L75.01,778.66z M86.08,778.66h-1.17l-3.81-5.05
		c-0.03-0.03-0.07-0.1-0.14-0.2s-0.14-0.21-0.21-0.32s-0.15-0.23-0.21-0.34s-0.12-0.2-0.15-0.26v6.17H79.3v-7.78h1.24l3.63,4.88
		c0.06,0.08,0.13,0.18,0.21,0.3s0.16,0.24,0.23,0.36s0.15,0.24,0.21,0.35s0.12,0.2,0.15,0.27v-6.16h1.09L86.08,778.66L86.08,778.66z
		 M97.44,778.66h-1.27l-0.87-2.23h-3l-0.81,2.23h-1.27l3.02-7.78h1.14L97.44,778.66L97.44,778.66z M93.96,772.75
		c-0.02-0.06-0.05-0.14-0.08-0.24c-0.03-0.11-0.06-0.22-0.07-0.33h-0.02c-0.02,0.12-0.04,0.23-0.08,0.34
		c-0.02,0.09-0.05,0.18-0.09,0.27l-0.94,2.61h2.27L93.96,772.75L93.96,772.75z M106.09,771.89h-1.96v6.77h-1.18v-6.77h-1.97v-1.01
		h5.11L106.09,771.89L106.09,771.89z M111.85,778.66h-1.18v-7.78h1.18V778.66z M122.77,774.79c0.01-0.43-0.05-0.86-0.16-1.27
		c-0.09-0.35-0.25-0.67-0.46-0.96c-0.2-0.26-0.46-0.46-0.76-0.6c-0.33-0.14-0.68-0.22-1.04-0.21c-0.35-0.01-0.71,0.07-1.03,0.22
		c-0.3,0.14-0.57,0.35-0.78,0.62c-0.23,0.28-0.4,0.61-0.5,0.95c-0.12,0.4-0.18,0.81-0.18,1.23c-0.01,0.42,0.05,0.83,0.17,1.23
		c0.1,0.34,0.26,0.66,0.48,0.94c0.21,0.26,0.47,0.47,0.76,0.61c0.31,0.15,0.65,0.22,1,0.22c0.36,0.01,0.72-0.06,1.05-0.2
		c0.3-0.13,0.57-0.33,0.77-0.58c0.23-0.28,0.39-0.6,0.49-0.94C122.72,775.64,122.77,775.22,122.77,774.79L122.77,774.79z
		 M123.99,774.66c0.01,0.58-0.08,1.15-0.25,1.7c-0.15,0.48-0.4,0.92-0.73,1.29c-0.32,0.36-0.72,0.64-1.16,0.82
		c-0.49,0.2-1.02,0.29-1.55,0.29c-0.51,0.01-1.02-0.09-1.5-0.28c-0.44-0.18-0.83-0.45-1.15-0.79c-0.33-0.36-0.57-0.78-0.73-1.24
		c-0.18-0.52-0.27-1.06-0.26-1.6c-0.01-0.57,0.08-1.14,0.26-1.68c0.15-0.48,0.41-0.91,0.74-1.29c0.33-0.36,0.74-0.64,1.19-0.82
		c0.51-0.2,1.05-0.3,1.59-0.29c0.51-0.01,1.01,0.09,1.47,0.28c0.43,0.18,0.81,0.45,1.13,0.8c0.32,0.36,0.56,0.78,0.72,1.23
		C123.91,773.59,124,774.13,123.99,774.66L123.99,774.66z M135.55,778.66h-1.16l-3.81-5.05c-0.03-0.03-0.07-0.1-0.14-0.2
		s-0.14-0.21-0.21-0.32s-0.15-0.23-0.21-0.34s-0.12-0.2-0.15-0.26v6.17h-1.09v-7.78h1.24l3.63,4.88c0.06,0.08,0.13,0.18,0.21,0.3
		s0.16,0.24,0.23,0.36s0.15,0.24,0.21,0.35s0.12,0.2,0.15,0.27v-6.16h1.09V778.66L135.55,778.66z M146.91,778.66h-1.27l-0.87-2.23
		h-3l-0.81,2.23h-1.27l3.02-7.78h1.14L146.91,778.66L146.91,778.66z M143.43,772.74c-0.02-0.06-0.05-0.14-0.08-0.24
		c-0.03-0.11-0.06-0.22-0.07-0.33h-0.02c-0.02,0.12-0.04,0.23-0.08,0.34c-0.02,0.09-0.05,0.18-0.09,0.27l-0.94,2.61h2.26
		L143.43,772.74L143.43,772.74z M154.79,778.66h-3.73v-7.78h1.18v6.79h2.55L154.79,778.66z"/>
	<circle id="Ellipse_2" class="st2" cx="-141.24" cy="756.84" r="30.57"/>
	<path id="Path_12" class="st3" d="M-132.03,766.2c6.81,3.12,11.64,6.53,13.01,10.43l0.67-0.22c-1.81-4.36-6.93-7.78-13.34-10.84
		L-132.03,766.2z"/>
	<path id="Path_13" class="st3" d="M-126.5,759.72c6.49,2.69,11.05,5.72,12.22,9.36l0.65-0.23c-1.58-4.05-6.43-7.09-12.53-9.73
		L-126.5,759.72z"/>
	<path id="Path_14" class="st3" d="M-144.2,750.74c2.01-11.75,6.86-17.4,13.36-21.19l-0.51-0.59c-10.57,6.89-11.8,14.97-13.41,21.51
		L-144.2,750.74z"/>
	<path id="Path_15" class="st3" d="M-153.51,751.62c-0.26-11.25,3.91-20.44,11.4-24.42l-0.32-0.47
		c-9.57,5.83-11.43,15.43-11.66,24.67L-153.51,751.62z"/>
	<path id="Path_16" class="st3" d="M-170.62,761.7c17.08-1.31,29.8,6.93,36.8,24.18l0.66-0.21c-7.51-17.34-21.07-27.17-37.6-24.54
		L-170.62,761.7z"/>
	<path id="Path_17" class="st1" d="M-152.71,753.59l-10.52-1.57c-2.05-0.33-2.1-1.91-6.15-0.99l3.24,3.6l16.24,2.35l0.13,0.63
		l-16.07-2.66l2.71,3.7l2.73-0.16l2.31,2.04l0.93-1.39c0.2-0.29,3.94,0.65,5.17,1.36s10.98,3.6,14.62,6.54l-4.73-3.83l8.86,3.21
		l-5.74-4.33l9.6,1.37l-8.66-4.11l11.06,2.5l-8.83-3.85l8.82,1.39l-7.23-2.55l10.03-2.24l-5.65,0.01l16.37-4.06l-25.07,3.61
		c-3.45-1.78-8.43-1.34-9.73-0.62C-150.65,754.93-151.48,754.15-152.71,753.59L-152.71,753.59z M-140.31,752.64l13.9-1.92
		l-11.63,3.02L-140.31,752.64L-140.31,752.64z M-147.68,754.25c1.89-0.31,3.8-0.45,5.71-0.41l0.6,0.1l-4.09,0.95L-147.68,754.25z"/>
</g>
</svg>
