<?xml version="1.0" encoding="utf-8"?>
<!-- Generator: Adobe Illustrator 25.0.0, SVG Export Plug-In . SVG Version: 6.00 Build 0)  -->
<svg version="1.1" id="圖層_1" xmlns="http://www.w3.org/2000/svg" xmlns:xlink="http://www.w3.org/1999/xlink" x="0px" y="0px"
	 viewBox="0 0 16.14 16.14" style="enable-background:new 0 0 16.14 16.14;" xml:space="preserve">
<path id="Icon_ionic-ios-search" d="M15.81,14.88l-4.3-4.34c2.11-2.65,1.66-6.51-0.99-8.61S4.01,0.27,1.91,2.92S0.25,9.43,2.9,11.53
	c2.25,1.79,5.45,1.77,7.68-0.05l4.27,4.31c0.25,0.26,0.67,0.27,0.93,0.02C16.04,15.57,16.06,15.15,15.81,14.88z M6.7,11.54
	c-2.67,0-4.84-2.17-4.84-4.84c0-2.67,2.17-4.84,4.84-4.84c2.67,0,4.84,2.17,4.84,4.84c0,1.28-0.51,2.51-1.42,3.42
	C9.21,11.03,7.98,11.54,6.7,11.54z"/>
</svg>
