<?xml version="1.0" encoding="utf-8"?>
<!-- Generator: Adobe Illustrator 25.0.0, SVG Export Plug-In . SVG Version: 6.00 Build 0)  -->
<svg version="1.1" id="圖層_1" xmlns="http://www.w3.org/2000/svg" xmlns:xlink="http://www.w3.org/1999/xlink" x="0px" y="0px"
	 viewBox="0 0 60 60" style="enable-background:new 0 0 60 60;" xml:space="preserve">
<style type="text/css">
	.st0{fill:none;}
	.st1{fill:none;stroke:#FFFFFF;stroke-width:0.9883;}
	.st2{fill:#FFFFFF;}
</style>
<g id="pic_2" transform="translate(-1624 -1613)">
	<g id="Ellipse_3" transform="translate(1624 1613)">
		<circle class="st0" cx="30.35" cy="29.95" r="29.65"/>
		<circle class="st1" cx="30.35" cy="29.95" r="29.15"/>
	</g>
	<path id="Icon_material-shopping-cart" class="st2" d="M1648.89,1651.15c-1.51,0-2.73,1.22-2.73,2.73c0,1.51,1.22,2.73,2.73,2.73
		s2.73-1.22,2.73-2.73C1651.62,1652.37,1650.4,1651.15,1648.89,1651.15C1648.89,1651.15,1648.89,1651.15,1648.89,1651.15z
		 M1640.69,1629.29v2.73h2.73l4.92,10.37l-1.84,3.35c-0.23,0.4-0.34,0.85-0.34,1.31c0,1.51,1.22,2.73,2.73,2.73h16.39v-2.73h-15.82
		c-0.19,0-0.34-0.15-0.34-0.33c0,0,0-0.01,0-0.01l0.04-0.16l1.23-2.23h10.18c0.99,0,1.91-0.54,2.39-1.41l4.89-8.86
		c0.11-0.2,0.17-0.43,0.16-0.66c0-0.75-0.61-1.36-1.37-1.37h-20.21l-1.28-2.73H1640.69z M1662.55,1651.15
		c-1.51,0-2.73,1.22-2.73,2.73c0,1.51,1.22,2.73,2.73,2.73s2.73-1.22,2.73-2.73C1665.28,1652.37,1664.06,1651.15,1662.55,1651.15
		C1662.55,1651.15,1662.55,1651.15,1662.55,1651.15z"/>
</g>
</svg>
