<?xml version="1.0" encoding="utf-8"?>
<!-- Generator: Adobe Illustrator 25.0.0, SVG Export Plug-In . SVG Version: 6.00 Build 0)  -->
<svg version="1.1" id="圖層_1" xmlns="http://www.w3.org/2000/svg" xmlns:xlink="http://www.w3.org/1999/xlink" x="0px" y="0px"
	 viewBox="0 0 60 61" style="enable-background:new 0 0 60 61;" xml:space="preserve">
<style type="text/css">
	.st0{fill:#FFFFFF;}
	.st1{fill:none;stroke:#9E958E;stroke-width:0.9691;}
	.st2{fill:#9E958E;}
</style>
<g id="Ellipse_6">
	<ellipse class="st0" cx="29.93" cy="30.49" rx="29.07" ry="29.56"/>
	<ellipse class="st1" cx="29.93" cy="30.49" rx="28.59" ry="29.07"/>
</g>
<path id="Icon_metro-facebook" class="st2" d="M37.97,18.53H21.35c-2.29,0-4.15,1.86-4.15,4.16v16.62c0,2.29,1.86,4.15,4.15,4.15
	h8.31v-10.9h-3.12v-3.12h3.12V27.1c0-2.15,1.74-3.89,3.89-3.89l0,0h3.89v3.12h-3.89c-0.43,0-0.78,0.35-0.78,0.78v2.34h4.28
	l-0.78,3.12h-3.51v10.91h5.19c2.29,0,4.15-1.86,4.15-4.15c0,0,0,0,0,0V22.69C42.12,20.4,40.26,18.54,37.97,18.53
	C37.97,18.53,37.97,18.53,37.97,18.53z"/>
</svg>
