<?xml version="1.0" encoding="utf-8"?>
<!-- Generator: Adobe Illustrator 25.0.0, SVG Export Plug-In . SVG Version: 6.00 Build 0)  -->
<svg version="1.1" id="圖層_1" xmlns="http://www.w3.org/2000/svg" xmlns:xlink="http://www.w3.org/1999/xlink" x="0px" y="0px"
	 viewBox="0 0 19 19" style="enable-background:new 0 0 19 19;" xml:space="preserve">
<style type="text/css">
	.st0{fill:#FFFFFF;stroke:#FFFFFF;stroke-width:2.5751;stroke-linecap:round;stroke-linejoin:round;}
	.st1{fill:none;stroke:#FFFFFF;stroke-width:1.7167;stroke-linecap:round;stroke-linejoin:round;}
</style>
<g id="Icon_feather-shopping-cart" transform="translate(-0.5 -0.5)">
	<path id="Path_161" class="st0" d="M8.58,16.76c0,0.41-0.33,0.74-0.74,0.74s-0.74-0.33-0.74-0.74s0.33-0.74,0.74-0.74l0,0
		C8.25,16.03,8.58,16.36,8.58,16.76z"/>
	<path id="Path_162" class="st0" d="M16.69,16.76c0,0.41-0.33,0.74-0.74,0.74c-0.41,0-0.74-0.33-0.74-0.74s0.33-0.74,0.74-0.74l0,0
		C16.36,16.03,16.69,16.36,16.69,16.76z"/>
	<path id="Path_163" class="st1" d="M1.96,2.03H4.9l1.97,9.86c0.14,0.7,0.76,1.2,1.47,1.19h7.16c0.71,0.01,1.33-0.49,1.47-1.19
		l1.18-6.18H5.64"/>
</g>
</svg>
