<?xml version="1.0" encoding="utf-8"?>
<!-- Generator: Adobe Illustrator 25.0.0, SVG Export Plug-In . SVG Version: 6.00 Build 0)  -->
<svg version="1.1" id="圖層_1" xmlns="http://www.w3.org/2000/svg" xmlns:xlink="http://www.w3.org/1999/xlink" x="0px" y="0px"
	 viewBox="0 0 130.78 160.88" style="enable-background:new 0 0 130.78 160.88;" xml:space="preserve">
<style type="text/css">
	.st0{fill-rule:evenodd;clip-rule:evenodd;fill:#DC000C;}
	.st1{fill:#F5CFE2;stroke:#F5CFE2;stroke-width:0.2145;stroke-miterlimit:22.926;}
</style>
<g id="logo" transform="translate(-278.423 -14.642)">
	<path id="Path_160" class="st0" d="M281.83,146.7h5.28l1.9,10.63l2.77-10.63h5.26l2.79,10.63l1.9-10.63h5.25l-3.96,19.02h-5.45
		l-3.15-11.97l-3.14,11.98h-5.45L281.83,146.7L281.83,146.7z M307.6,146.7h14.9v4.06h-9.33v3.02h8.65v3.88h-8.65v3.75h9.6v4.31
		H307.6V146.7z M324.77,146.7h5.57v19.02h-5.57V146.7z M333.11,146.7h5.56v14.33h8.68v4.69h-14.24L333.11,146.7L333.11,146.7z
		 M359.73,146.7h5.55v11.34c0.01,1.08-0.16,2.16-0.5,3.18c-0.32,0.98-0.85,1.87-1.56,2.62c-0.62,0.68-1.38,1.22-2.23,1.58
		c-1.25,0.45-2.57,0.66-3.89,0.63c-0.96-0.01-1.92-0.07-2.87-0.2c-0.91-0.09-1.79-0.35-2.59-0.77c-0.74-0.42-1.38-0.98-1.91-1.64
		c-0.54-0.64-0.95-1.39-1.19-2.19c-0.32-1.04-0.49-2.12-0.52-3.22V146.7h5.55v11.61c-0.05,0.89,0.24,1.76,0.81,2.43
		c1.28,1.16,3.23,1.17,4.52,0.01c0.58-0.68,0.87-1.55,0.81-2.44L359.73,146.7L359.73,146.7z M367.79,146.7h5.19l6.78,10.52V146.7
		H385v19.02h-5.24l-6.74-10.44v10.44h-5.23L367.79,146.7L367.79,146.7z M396.53,158.83v-3.95h8.58v8.11
		c-1.33,1.01-2.8,1.83-4.36,2.42c-1.46,0.46-2.97,0.67-4.5,0.64c-1.81,0.08-3.61-0.32-5.22-1.16c-1.37-0.79-2.47-1.99-3.13-3.44
		c-0.77-1.64-1.15-3.43-1.11-5.24c-0.04-1.88,0.37-3.74,1.21-5.42c0.79-1.51,2.04-2.73,3.56-3.49c1.55-0.68,3.23-1,4.92-0.92
		c1.51-0.07,3.02,0.13,4.46,0.57c0.96,0.36,1.81,0.97,2.46,1.77c0.7,0.9,1.2,1.94,1.47,3.04l-5.36,1.01
		c-0.18-0.66-0.58-1.24-1.13-1.65c-0.59-0.4-1.3-0.6-2.02-0.57c-1.13-0.04-2.21,0.46-2.92,1.34c-0.83,1.26-1.21,2.75-1.09,4.25
		c0,2.06,0.37,3.53,1.1,4.41c0.76,0.9,1.89,1.38,3.06,1.32c0.6,0,1.2-0.1,1.78-0.29c0.68-0.25,1.33-0.57,1.94-0.97v-1.79
		L396.53,158.83z"/>
	<path id="Path_161" class="st0" d="M283.12,174.56v-4.67h1.36v4.67H283.12z M289.63,174.56v-4.67h1.33l2.77,3.12v-3.12h1.27v4.67
		h-1.37l-2.72-3.04v3.04H289.63z M301.77,174.56v-3.87h-2v-0.79h5.36v0.79h-2v3.87H301.77z M309.84,174.56v-4.67h5.01v0.79h-3.64
		v1.03h3.39v0.78h-3.39v1.27h3.77v0.79L309.84,174.56z M319.97,174.56v-4.67h2.87c0.53-0.02,1.05,0.03,1.57,0.13
		c0.3,0.07,0.57,0.22,0.79,0.45c0.41,0.43,0.39,1.1-0.04,1.51c-0.04,0.03-0.07,0.07-0.12,0.1c-0.4,0.26-0.86,0.41-1.34,0.43
		c0.26,0.1,0.5,0.23,0.73,0.4c0.28,0.23,0.54,0.48,0.78,0.76l0.83,0.91h-1.63l-0.99-1.02c-0.22-0.24-0.46-0.47-0.72-0.69
		c-0.12-0.09-0.26-0.16-0.41-0.2c-0.23-0.04-0.46-0.06-0.69-0.05h-0.28v1.95L319.97,174.56z M321.33,171.87h1.01
		c0.41,0.01,0.82,0,1.23-0.06c0.14-0.03,0.28-0.1,0.38-0.2c0.09-0.09,0.14-0.22,0.14-0.35c0-0.15-0.06-0.29-0.18-0.38
		c-0.15-0.11-0.33-0.17-0.51-0.18c-0.11-0.01-0.44-0.02-0.99-0.02h-1.06L321.33,171.87L321.33,171.87z M330.62,174.56v-4.67h1.33
		l2.77,3.12v-3.12h1.27v4.67h-1.37l-2.72-3.04v3.04H330.62z M347.34,174.56h-1.48l-0.59-1.06h-2.7l-0.56,1.06h-1.45l2.63-4.67h1.44
		L347.34,174.56L347.34,174.56z M344.83,172.72l-0.93-1.73l-0.91,1.73H344.83z M352.71,174.56v-3.87h-2v-0.79h5.36v0.79h-2v3.87
		H352.71z M360.73,174.56v-4.67h1.36v4.67H360.73z M366.95,172.26c-0.01-0.42,0.09-0.84,0.31-1.2c0.17-0.25,0.38-0.47,0.63-0.64
		c0.27-0.19,0.56-0.33,0.87-0.42c0.47-0.13,0.97-0.19,1.46-0.18c0.84-0.04,1.68,0.18,2.39,0.64c0.98,0.72,1.19,2.11,0.46,3.09
		c-0.13,0.17-0.28,0.33-0.46,0.46c-0.71,0.46-1.54,0.68-2.38,0.64c-0.85,0.04-1.68-0.18-2.4-0.63
		C367.26,173.62,366.92,172.96,366.95,172.26L366.95,172.26z M368.35,172.23c-0.03,0.46,0.17,0.91,0.53,1.2
		c0.39,0.28,0.86,0.43,1.35,0.41c0.48,0.02,0.95-0.12,1.34-0.41c0.36-0.3,0.55-0.75,0.52-1.22c0.03-0.46-0.16-0.9-0.51-1.2
		c-0.83-0.53-1.89-0.53-2.71,0C368.51,171.32,368.32,171.76,368.35,172.23L368.35,172.23z M378.4,174.56v-4.67h1.33l2.77,3.12v-3.12
		h1.27v4.67h-1.37l-2.72-3.04v3.04H378.4z M395.12,174.56h-1.48l-0.59-1.06h-2.7l-0.56,1.06h-1.45l2.63-4.67h1.44L395.12,174.56z
		 M392.61,172.72l-0.93-1.73l-0.91,1.73H392.61z M399.71,174.56v-4.63h1.36v3.84h3.39v0.79H399.71z"/>
	<circle id="Ellipse_20" class="st1" cx="343.47" cy="79.8" r="64.95"/>
	<path id="Path_162" class="st0" d="M363.08,99.7c14.46,6.64,24.73,13.87,27.64,22.17l1.41-0.47c-3.84-9.25-14.74-16.53-28.34-23.04
		L363.08,99.7z"/>
	<path id="Path_163" class="st0" d="M374.84,85.93c13.79,5.71,23.47,12.16,25.97,19.89l1.39-0.5c-3.37-8.61-13.66-15.06-26.62-20.68
		L374.84,85.93z"/>
	<path id="Path_164" class="st0" d="M337.22,66.84c4.28-24.98,14.58-36.98,28.39-45.02l-1.08-1.25
		c-22.47,14.63-25.08,31.8-28.51,45.7L337.22,66.84z"/>
	<path id="Path_165" class="st0" d="M317.43,68.69c-0.56-23.91,8.3-43.42,24.22-51.9l-0.68-0.99
		c-20.34,12.38-24.28,32.78-24.78,52.42L317.43,68.69z"/>
	<path id="Path_166" class="st0" d="M281.07,90.13c36.3-2.78,63.33,14.73,78.2,51.39l1.4-0.45c-15.97-36.85-44.76-57.74-79.89-52.16
		L281.07,90.13z"/>
	<path id="Path_167" class="st0" d="M319.14,72.89l-22.36-3.34c-4.36-0.7-4.47-4.07-13.08-2.1l6.88,7.64l34.51,5l0.27,1.35
		l-34.16-5.66l5.75,7.87l5.8-0.33l4.91,4.33l1.97-2.96c0.42-0.63,8.38,1.39,11,2.9c2.62,1.52,23.33,7.65,31.07,13.91l-10.05-8.13
		l18.83,6.83l-12.19-9.2l20.39,2.92l-18.41-8.74l23.51,5.31L355,82.28l18.74,2.95l-15.37-5.42l21.32-4.77l-12.01,0.01l34.79-8.62
		l-53.28,7.67c-7.32-3.77-17.9-2.86-20.67-1.33C323.51,75.74,321.75,74.1,319.14,72.89L319.14,72.89z M345.49,70.87l29.53-4.09
		l-24.72,6.41L345.49,70.87z M329.82,74.29c3.56-0.95,7.7-0.6,12.13-0.88l1.27,0.22l-8.68,2.02L329.82,74.29z"/>
</g>
</svg>
