<?xml version="1.0" encoding="utf-8"?>
<!-- Generator: Adobe Illustrator 25.0.0, SVG Export Plug-In . SVG Version: 6.00 Build 0)  -->
<svg version="1.1" id="圖層_1" xmlns="http://www.w3.org/2000/svg" xmlns:xlink="http://www.w3.org/1999/xlink" x="0px" y="0px"
	 viewBox="0 0 84 84" style="enable-background:new 0 0 84 84;" xml:space="preserve">
<style type="text/css">
	.st0{fill:#401D01;}
	.st1{fill:none;}
	.st2{fill:none;stroke:#C9C0B9;stroke-width:1.0005;}
</style>
<g id="fb" transform="translate(0.073 -0.068)">
	<path id="Icon_metro-facebook" class="st0" d="M52.1,26.92H31.61c-2.83,0-5.12,2.3-5.12,5.13v20.51c0,2.83,2.29,5.13,5.12,5.13
		h10.25V44.23h-3.84v-3.85h3.84V37.5c0-2.65,2.15-4.8,4.8-4.8h4.8v3.85h-4.8c-0.53,0-0.96,0.43-0.96,0.96v2.88h5.28l-0.96,3.85H45.7
		v13.46h6.4c2.83,0,5.12-2.3,5.12-5.13V32.05C57.22,29.22,54.93,26.92,52.1,26.92L52.1,26.92z"/>
	<g id="Ellipse_4" transform="translate(-0.073 0.068)">
		<ellipse class="st1" cx="42" cy="41.96" rx="42" ry="42.04"/>
		<ellipse class="st2" cx="42" cy="41.96" rx="41.5" ry="41.54"/>
	</g>
</g>
</svg>
