<?xml version="1.0" encoding="utf-8"?>
<!-- Generator: Adobe Illustrator 25.0.0, SVG Export Plug-In . SVG Version: 6.00 Build 0)  -->
<svg version="1.1" id="圖層_1" xmlns="http://www.w3.org/2000/svg" xmlns:xlink="http://www.w3.org/1999/xlink" x="0px" y="0px"
	 viewBox="0 0 16.14 16.14" style="enable-background:new 0 0 16.14 16.14;" xml:space="preserve">
<path id="Icon_ionic-ios-search" d="M15.81,14.84l-4.46-4.51c2.19-2.75,1.73-6.76-1.03-8.95S3.57-0.35,1.38,2.41
	s-1.73,6.76,1.03,8.95c2.34,1.86,5.66,1.84,7.98-0.05l4.43,4.48c0.26,0.27,0.69,0.29,0.97,0.02C16.06,15.55,16.07,15.12,15.81,14.84
	z M6.35,11.36c-2.77,0-5.02-2.25-5.02-5.03c0-2.78,2.25-5.03,5.02-5.02c2.77,0,5.02,2.25,5.02,5.03c0,1.33-0.53,2.61-1.47,3.55
	C8.96,10.84,7.69,11.37,6.35,11.36z"/>
</svg>
