<?xml version="1.0" encoding="utf-8"?>
<!-- Generator: Adobe Illustrator 25.0.0, SVG Export Plug-In . SVG Version: 6.00 Build 0)  -->
<svg version="1.1" id="圖層_1" xmlns="http://www.w3.org/2000/svg" xmlns:xlink="http://www.w3.org/1999/xlink" x="0px" y="0px"
	 viewBox="0 0 18.88 18.02" style="enable-background:new 0 0 18.88 18.02;" xml:space="preserve">
<style type="text/css">
	.st0{fill:#FFFFFF;stroke:#FFFFFF;stroke-width:2.4234;stroke-linecap:round;stroke-linejoin:round;}
	.st1{fill:none;stroke:#FFFFFF;stroke-width:1.6156;stroke-linecap:round;stroke-linejoin:round;}
</style>
<g id="Icon_feather-shopping-cart" transform="translate(-0.5 -0.5)">
	<path id="Path_161" class="st0" d="M8.76,15.81c0,0.38-0.31,0.69-0.69,0.69c-0.38,0-0.69-0.31-0.69-0.69
		c0-0.38,0.31-0.69,0.69-0.69l0,0C8.45,15.11,8.76,15.42,8.76,15.81z"/>
	<path id="Path_162" class="st0" d="M16.39,15.81c0,0.38-0.31,0.69-0.69,0.69S15,16.19,15,15.81c0-0.38,0.31-0.69,0.69-0.69l0,0
		C16.08,15.11,16.39,15.42,16.39,15.81z"/>
	<path id="Path_163" class="st1" d="M2.52,1.94H5.3l1.86,9.28c0.13,0.66,0.71,1.13,1.39,1.12h6.74c0.67,0.01,1.26-0.46,1.39-1.12
		l1.11-5.82H5.99"/>
</g>
</svg>
