<?xml version="1.0" encoding="utf-8"?>
<!-- Generator: Adobe Illustrator 25.0.0, SVG Export Plug-In . SVG Version: 6.00 Build 0)  -->
<svg version="1.1" id="圖層_1" xmlns="http://www.w3.org/2000/svg" xmlns:xlink="http://www.w3.org/1999/xlink" x="0px" y="0px"
	 viewBox="0 0 41 42.44" style="enable-background:new 0 0 41 42.44;" xml:space="preserve">
<style type="text/css">
	.st0{fill:#121212;}
	.st1{fill:#DC000C;}
	.st2{fill:#FFFFFF;}
	.st3{font-family:'Arial-BoldMT';}
	.st4{font-size:19.794px;}
	.st5{letter-spacing:1.98;}
</style>
<g id="shopcart" transform="translate(-1563.309 -40.765)">
	<path id="Icon_material-shopping-cart" class="st0" d="M1571.24,77.53c-1.46,0-2.64,1.17-2.64,2.62c0,1.45,1.18,2.62,2.64,2.62
		c1.46,0,2.64-1.17,2.64-2.62c0,0,0,0,0,0C1573.89,78.71,1572.71,77.53,1571.24,77.53C1571.25,77.53,1571.24,77.53,1571.24,77.53z
		 M1563.31,56.6v2.62h2.64l4.76,9.93l-1.78,3.21c-0.22,0.38-0.33,0.82-0.33,1.26c0,1.44,1.19,2.61,2.64,2.62h15.86v-2.62h-15.31
		c-0.18,0-0.33-0.14-0.33-0.32c0,0,0,0,0-0.01l0.04-0.15l1.19-2.13h9.85c0.96,0,1.85-0.51,2.31-1.35l4.73-8.49
		c0.11-0.19,0.16-0.41,0.16-0.63c0-0.72-0.59-1.31-1.32-1.31h-19.55l-1.24-2.62H1563.31z M1584.46,77.53
		c-1.46,0-2.64,1.17-2.64,2.62s1.18,2.62,2.64,2.62c1.46,0,2.64-1.17,2.64-2.62l0,0C1587.1,78.71,1585.92,77.53,1584.46,77.53
		C1584.46,77.53,1584.46,77.53,1584.46,77.53z"/>
	<ellipse id="Ellipse_21" class="st1" cx="1592.17" cy="52.78" rx="12.14" ry="12.02"/>
	<text transform="matrix(1.0104 0 0 1 1587.0052 59.7855)" class="st2 st3 st4 st5">0</text>
</g>
</svg>
