<?xml version="1.0" encoding="utf-8"?>
<!-- Generator: Adobe Illustrator 25.0.0, SVG Export Plug-In . SVG Version: 6.00 Build 0)  -->
<svg version="1.1" id="圖層_1" xmlns="http://www.w3.org/2000/svg" xmlns:xlink="http://www.w3.org/1999/xlink" x="0px" y="0px"
	 viewBox="0 0 15 15" style="enable-background:new 0 0 15 15;" xml:space="preserve">
<style type="text/css">
	.st0{fill:#401D01;}
</style>
<path id="Icon_material-perm-phone-msg" class="st0" d="M14.16,10.41c-1.01,0-2.01-0.16-2.97-0.48c-0.3-0.1-0.63-0.02-0.85,0.2
	l-1.83,1.83c-2.36-1.2-4.28-3.12-5.49-5.48l1.83-1.84c0.22-0.22,0.3-0.54,0.21-0.84C4.74,2.85,4.58,1.84,4.58,0.83
	C4.58,0.37,4.21,0,3.75,0H0.83C0.37,0,0,0.37,0,0.83C0,8.65,6.34,15,14.16,15c0,0,0,0,0.01,0c0.46,0,0.83-0.37,0.83-0.83v-2.92
	C14.99,10.79,14.62,10.42,14.16,10.41z M7.5,0v8.33l2.5-2.5h5V0H7.5z"/>
</svg>
