<?xml version="1.0" encoding="utf-8"?>
<!-- Generator: Adobe Illustrator 25.0.0, SVG Export Plug-In . SVG Version: 6.00 Build 0)  -->
<svg version="1.1" id="圖層_1" xmlns="http://www.w3.org/2000/svg" xmlns:xlink="http://www.w3.org/1999/xlink" x="0px" y="0px"
	 viewBox="0 0 319.68 36.53" style="enable-background:new 0 0 319.68 36.53;" xml:space="preserve">
<style type="text/css">
	.st0{fill:#D4C6B0;stroke:#D4C6B0;stroke-width:0.9389;}
	.st1{fill:#D4C6B0;stroke:#D4C6B0;stroke-width:0.9389;stroke-linecap:round;}
	.st2{fill:#D4C6B0;stroke:#D4C6B0;stroke-width:0.9389;stroke-linecap:square;}
</style>
<g id="Group_70" transform="translate(-565.965 -164.173)">
	<g id="Group_69">
		<g id="Group_60">
			<g id="Group_58">
				<g id="Group_56">
					<path id="Path_116" class="st0" d="M866.56,164.88l2.17,2.64c0,0-0.46,4.17-9.11,5.38
						C859.63,172.9,866.67,170.89,866.56,164.88z"/>
				</g>
				<g id="Group_57">
					<path id="Path_117" class="st0" d="M866.56,182.14l2.17-2.64c0,0-0.46-4.17-9.11-5.38
						C859.63,174.12,866.67,176.12,866.56,182.14z"/>
				</g>
			</g>
			<g id="Group_59">
				<path id="Path_118" class="st0" d="M876.12,173.51l-3.65-1.74l-8.67,1.74l8.67,1.74L876.12,173.51z"/>
			</g>
		</g>
		<g id="Group_68">
			<g id="Group_66">
				<g id="Group_65">
					<g id="Group_63">
						<g id="Group_61">
							<path id="Path_119" class="st1" d="M591.34,198.39l-4.06-0.4c0,0-3.13-3.91,3.15-12.24
								C590.42,185.75,586.16,193.4,591.34,198.39z"/>
						</g>
						<g id="Group_62" transform="translate(-2)">
							<path id="Path_120" class="st2" d="M577.97,183.81l0.48,4.06c0,0,4.73,3.13,14.82-3.15
								C593.27,184.72,584.01,188.98,577.97,183.81z"/>
						</g>
					</g>
					<g id="Group_64">
						<path id="Path_121" class="st1" d="M575.97,199.17l4.56-1.61l5.85-8.8l-8.8,5.85L575.97,199.17z"/>
					</g>
				</g>
			</g>
			<g id="Group_67">
				<path id="Path_122" class="st0" d="M626.35,172.97h242.77v1.08H626.35c-15.67-0.04-30.71,6.19-41.76,17.3l-0.76-0.76
					C595.07,179.27,610.39,172.93,626.35,172.97z"/>
			</g>
		</g>
	</g>
</g>
</svg>
