<?xml version="1.0" encoding="utf-8"?>
<!-- Generator: Adobe Illustrator 25.0.0, SVG Export Plug-In . SVG Version: 6.00 Build 0)  -->
<svg version="1.1" id="圖層_1" xmlns="http://www.w3.org/2000/svg" xmlns:xlink="http://www.w3.org/1999/xlink" x="0px" y="0px"
	 viewBox="0 0 35.69 25.95" style="enable-background:new 0 0 35.69 25.95;" xml:space="preserve">
<style type="text/css">
	.st0{fill:#DC000C;}
</style>
<g id="video-playback-mark-svgrepo-com" transform="translate(0 -74.451)">
	<path id="Path_280" class="st0" d="M0,74.45v26h35v-26H0z M4.89,81.1H3.28c-0.29,0-0.52-0.24-0.52-0.55v-3.08
		c0-0.3,0.23-0.55,0.52-0.55c0,0,0,0,0,0h1.61c0.29,0,0.52,0.24,0.52,0.55v3.08C5.41,80.85,5.18,81.1,4.89,81.1z M3.28,85h1.61
		c0.29,0,0.52,0.24,0.52,0.55c0,0,0,0,0,0v3.08c0,0.3-0.23,0.55-0.52,0.55H3.28c-0.29,0-0.52-0.24-0.52-0.55v-3.08
		C2.76,85.25,2.99,85.01,3.28,85L3.28,85z M3.28,93.8h1.61c0.29,0,0.52,0.24,0.52,0.55v3.08c0,0.3-0.23,0.55-0.52,0.55H3.28
		c-0.29,0-0.52-0.24-0.52-0.55v-3.07C2.76,94.05,2.99,93.81,3.28,93.8L3.28,93.8z M13.6,92.53V82.38c0-0.3,0.23-0.55,0.52-0.55
		c0.09,0,0.18,0.03,0.26,0.07l8.39,5.07c0.25,0.15,0.34,0.48,0.19,0.75c-0.05,0.08-0.11,0.15-0.19,0.2L14.39,93
		c-0.25,0.15-0.57,0.06-0.71-0.2C13.63,92.72,13.6,92.62,13.6,92.53z M31.72,81.1h-1.61c-0.29,0-0.52-0.24-0.52-0.55v-3.08
		c0-0.3,0.23-0.55,0.52-0.55c0,0,0,0,0,0h1.61c0.29,0,0.52,0.24,0.52,0.55v3.08C32.24,80.85,32.01,81.1,31.72,81.1z M30.11,85h1.61
		c0.29,0,0.52,0.24,0.52,0.55c0,0,0,0,0,0v3.08c0,0.3-0.23,0.55-0.52,0.55h-1.61c-0.29,0-0.52-0.24-0.52-0.55v-3.08
		C29.59,85.25,29.82,85.01,30.11,85L30.11,85z M30.11,93.8h1.61c0.29,0,0.52,0.24,0.52,0.55v3.08c0,0.3-0.23,0.55-0.52,0.55h-1.61
		c-0.29,0-0.52-0.24-0.52-0.55v-3.07C29.59,94.05,29.82,93.81,30.11,93.8L30.11,93.8z"/>
</g>
</svg>
