<?xml version="1.0" encoding="utf-8"?>
<!-- Generator: Adobe Illustrator 25.0.0, SVG Export Plug-In . SVG Version: 6.00 Build 0)  -->
<svg version="1.1" id="圖層_1" xmlns="http://www.w3.org/2000/svg" xmlns:xlink="http://www.w3.org/1999/xlink" x="0px" y="0px"
	 viewBox="0 0 18.27 15.98" style="enable-background:new 0 0 18.27 15.98;" xml:space="preserve">
<style type="text/css">
	.st0{fill:#401D01;}
</style>
<path id="Icon_metro-printer" class="st0" d="M4.5,0h9v2.29h-9V0z M16.87,3.43H1.12C0.5,3.43,0,3.94,0,4.57v5.71
	c0,0.63,0.5,1.14,1.13,1.14H4.5V16h9v-4.57h3.38c0.62,0,1.12-0.51,1.13-1.14V4.57C18,3.94,17.5,3.43,16.87,3.43z M2.25,6.86
	c-0.62,0-1.12-0.52-1.12-1.15c0-0.63,0.51-1.14,1.13-1.14c0.62,0,1.12,0.51,1.12,1.14C3.38,6.35,2.87,6.86,2.25,6.86
	C2.25,6.86,2.25,6.86,2.25,6.86z M12.37,14.86H5.62V9.14h6.75V14.86z"/>
</svg>
