<?xml version="1.0" encoding="utf-8"?>
<!-- Generator: Adobe Illustrator 25.0.0, SVG Export Plug-In . SVG Version: 6.00 Build 0)  -->
<svg version="1.1" id="圖層_1" xmlns="http://www.w3.org/2000/svg" xmlns:xlink="http://www.w3.org/1999/xlink" x="0px" y="0px"
	 viewBox="0 0 84 84" style="enable-background:new 0 0 84 84;" xml:space="preserve">
<style type="text/css">
	.st0{fill:#401D01;}
	.st1{fill:none;}
	.st2{fill:none;stroke:#C9C0B9;}
</style>
<g id="line" transform="translate(-0.21 -0.068)">
	<path id="Icon_awesome-line" class="st0" d="M45.3,38.59v4.78c0,0.12-0.09,0.21-0.21,0.22c0,0,0,0-0.01,0h-0.77
		c-0.07,0-0.13-0.03-0.17-0.09l-2.19-2.96v2.84c0,0.12-0.09,0.21-0.21,0.22c0,0,0,0-0.01,0h-0.77c-0.12,0-0.21-0.09-0.22-0.21
		c0,0,0,0,0-0.01v-4.78c0-0.12,0.09-0.21,0.21-0.22c0,0,0,0,0.01,0h0.76c0.07,0,0.14,0.03,0.17,0.09l2.19,2.96v-2.84
		c0-0.12,0.09-0.21,0.21-0.22c0,0,0,0,0.01,0h0.77C45.2,38.37,45.3,38.47,45.3,38.59C45.3,38.58,45.3,38.59,45.3,38.59L45.3,38.59z
		 M39.79,38.37h-0.77c-0.12,0-0.21,0.09-0.22,0.21c0,0,0,0,0,0.01v4.78c0,0.12,0.09,0.21,0.21,0.22c0,0,0,0,0.01,0h0.77
		c0.12,0,0.21-0.09,0.22-0.21c0,0,0,0,0-0.01v-4.78C40,38.47,39.91,38.37,39.79,38.37z M37.94,42.38h-2.09v-3.79
		c0-0.12-0.09-0.21-0.21-0.22c0,0,0,0-0.01,0h-0.77c-0.12,0-0.21,0.09-0.22,0.21c0,0,0,0,0,0.01v4.78c0,0.06,0.02,0.11,0.06,0.15
		c0.04,0.04,0.09,0.06,0.15,0.06h3.07c0.12,0,0.21-0.09,0.22-0.21c0,0,0,0,0-0.01v-0.77C38.15,42.47,38.06,42.38,37.94,42.38
		L37.94,42.38z M49.33,38.37h-3.07c-0.12,0-0.21,0.1-0.22,0.22v4.78c0,0.12,0.1,0.21,0.22,0.22h3.07c0.12,0,0.21-0.09,0.22-0.21
		c0,0,0,0,0-0.01V42.6c0-0.12-0.09-0.21-0.21-0.22c0,0,0,0-0.01,0h-2.09v-0.81h2.09c0.12,0,0.21-0.09,0.22-0.21c0,0,0,0,0-0.01
		v-0.77c0-0.12-0.09-0.21-0.21-0.22c0,0,0,0-0.01,0h-2.09v-0.81h2.09c0.12,0,0.21-0.09,0.22-0.21c0,0,0,0,0-0.01v-0.77
		C49.54,38.47,49.45,38.37,49.33,38.37L49.33,38.37z M57.13,32.5v19.18c-0.02,3.02-2.47,5.45-5.49,5.44H32.46
		c-3.02-0.02-5.45-2.47-5.45-5.49V32.46c0.02-3.02,2.47-5.45,5.49-5.45h19.18C54.7,27.03,57.14,29.49,57.13,32.5z M52.99,40.74
		c0-4.91-4.92-8.9-10.96-8.9s-10.96,3.99-10.96,8.9c0,4.4,3.9,8.08,9.17,8.78c1.28,0.28,1.14,0.75,0.85,2.47
		c-0.05,0.28-0.22,1.08,0.95,0.59c3.18-1.67,6.08-3.82,8.62-6.36C52.1,44.77,52.94,42.81,52.99,40.74L52.99,40.74z"/>
	<g id="Ellipse_5" transform="translate(0.21 0.068)">
		<circle class="st1" cx="42" cy="42" r="42"/>
		<circle class="st2" cx="42" cy="42" r="41.5"/>
	</g>
</g>
</svg>
