<?xml version="1.0" encoding="utf-8"?>
<!-- Generator: Adobe Illustrator 25.0.0, SVG Export Plug-In . SVG Version: 6.00 Build 0)  -->
<svg version="1.1" id="圖層_1" xmlns="http://www.w3.org/2000/svg" xmlns:xlink="http://www.w3.org/1999/xlink" x="0px" y="0px"
	 viewBox="0 0 212.47 47.58" style="enable-background:new 0 0 212.47 47.58;" xml:space="preserve">
<style type="text/css">
	.st0{fill-rule:evenodd;clip-rule:evenodd;fill:#1A1311;}
	.st1{fill-rule:evenodd;clip-rule:evenodd;fill:#DC000C;}
	.st2{fill:#F5CFE2;}
	.st3{fill-rule:evenodd;clip-rule:evenodd;fill:#DC000C;stroke:#DC000C;stroke-width:0.567;stroke-miterlimit:22.926;}
</style>
<g id="logo" transform="translate(175.248 -719.243)">
	<path id="Path_9" class="st0" d="M-124.96,735.14v-1.34h7.04v1.34H-124.96z M-123.43,736.74c0.25-0.63,0.43-1.12,0.53-1.45
		l1.62,0.26c-0.1,0.27-0.18,0.47-0.25,0.62c-0.06,0.15-0.13,0.34-0.21,0.57h4.02v1.25h-1.08c-0.28,1.05-0.74,2.05-1.36,2.95
		c0.18,0.1,0.36,0.2,0.57,0.3c0.19,0.1,0.38,0.21,0.57,0.34l-1.02,1.16c-0.33-0.25-0.69-0.47-1.06-0.66
		c-1.2,1.04-2.67,1.74-4.23,2.02l-0.89-1.28c1.33-0.22,2.6-0.73,3.72-1.47c-1.01-0.45-2.04-0.84-3.1-1.15
		c0.59-0.68,1.11-1.41,1.55-2.19h-1.49v-1.25L-123.43,736.74z M-124.81,730.7v-1.26h-4.14v-1.47h4.14v-1.34h1.81v1.34h2.14v1.47
		H-123v1.26H-124.81z M-115.4,730.21h-0.68v-0.77h4.72v-1.47h-4.72v-1.34h-1.8v1.34h-2.1v1.47h2.1v0.95h0.87v1h-10.94v3.32
		c0.1,2.8-0.28,5.59-1.12,8.26l1.51,1.26c0.9-2.88,1.32-5.88,1.27-8.9v-2.46h9.26v0.21c-0.04,2.35,0.19,4.7,0.7,6.99
		c-1.13,1.33-2.52,2.42-4.08,3.2l1.28,1.11c1.27-0.64,2.41-1.51,3.35-2.59c0.63,1.74,1.38,2.61,2.27,2.6c0.89,0,1.65-0.97,2.27-2.91
		l-1.28-1.06c-0.23,1.41-0.51,2.11-0.83,2.11c-0.18,0-0.4-0.32-0.68-0.95c-0.23-0.43-0.38-0.9-0.43-1.38
		c1.01-1.68,1.84-3.46,2.48-5.31l-1.47-0.59c-0.39,1.34-0.93,2.63-1.61,3.85c-0.25-1.76-0.35-3.53-0.32-5.31h4.06v-1.49h-1.76
		l1.32-0.6c-0.39-0.45-0.85-0.85-1.34-1.19l-1.28,0.55c0.46,0.38,0.89,0.8,1.28,1.25h-2.29V730.21L-115.4,730.21z M-121.53,740.33
		c0.55-0.7,0.99-1.5,1.29-2.34h-2.06c-0.29,0.58-0.63,1.14-1.04,1.65C-122.62,739.9-122.01,740.13-121.53,740.33L-121.53,740.33z
		 M-101.17,731.79h2.08v1.45h-8.78v-1.45h2.11c-0.18-0.83-0.43-1.65-0.75-2.44h-1.01v-1.42h3.32c-0.15-0.41-0.34-0.8-0.59-1.15
		l1.78-0.17c0.26,0.41,0.45,0.86,0.57,1.33h3.02v1.42h-1C-100.62,730.18-100.87,730.99-101.17,731.79L-101.17,731.79z
		 M-99.87,741.92c0.08,0.64-0.06,1.28-0.4,1.83c-0.46,0.36-1.04,0.51-1.62,0.43h-1.1l-0.42-1.45l1.17,0.07
		c0.33,0.05,0.64-0.17,0.7-0.51c0.01-0.06,0.01-0.12,0-0.17v-1.15h-3.97v3.42h-1.66v-10.2h7.31L-99.87,741.92L-99.87,741.92z
		 M-96.81,742.01c-0.05,0.32,0.17,0.61,0.49,0.66c0.06,0.01,0.11,0.01,0.17,0h3.54c0.42,0,0.67-0.11,0.78-0.34
		c0.13-0.4,0.2-0.81,0.21-1.23l1.55,0.58c-0.01,0.72-0.25,1.42-0.68,2c-0.55,0.42-1.24,0.61-1.93,0.53h-3.65
		c-0.63,0.07-1.26-0.1-1.76-0.49c-0.37-0.54-0.53-1.2-0.45-1.85v-9.07h5.96v-1.26h-5.98v-4.93h1.78v0.89h6.31v1.47h-6.3v1.12h5.91
		v4.14h-5.92v0.95h5.75v1.3h-5.75v0.95h5.83v1.32h-5.83v1.02h5.99v1.34h-5.99L-96.81,742.01L-96.81,742.01z M-105.51,739.6h3.99
		v-1.32h-3.98L-105.51,739.6L-105.51,739.6z M-102.11,729.35h-2.7c0.14,0.32,0.25,0.65,0.32,0.98c0.13,0.48,0.26,0.96,0.4,1.45h1.21
		C-102.53,731.01-102.27,730.19-102.11,729.35z M-105.51,736.91h3.98v-1.21h-3.98L-105.51,736.91L-105.51,736.91z M-70.94,741.46
		h-13.7v-8.29h13.7V741.46L-70.94,741.46z M-79.43,742.86c-2.1,0.77-4.28,1.28-6.5,1.51l-0.62-1.61c2.13-0.14,4.24-0.53,6.29-1.15
		L-79.43,742.86L-79.43,742.86z M-69.7,744.39c-2.23-0.63-4.49-1.12-6.78-1.47l0.72-1.34c2.23,0.26,4.45,0.65,6.63,1.19
		L-69.7,744.39z M-81.15,729.53l1.4-0.46c0.59,0.98,1.07,2.03,1.42,3.12l-1.59,0.57c-0.04-0.14-0.07-0.29-0.11-0.45
		c-0.01-0.14-0.05-0.27-0.09-0.4c-2.02,0.54-4.07,0.95-6.14,1.23l-0.44-1.66c0.23-0.01,0.44-0.02,0.64-0.03
		c0.18-0.02,0.36-0.04,0.55-0.04v-3.7c2.12-0.08,4.22-0.42,6.26-1.02l0.91,1.34c-1.77,0.46-3.57,0.78-5.39,0.95v2.25
		c1.24-0.2,2.29-0.4,3.15-0.58C-80.84,730.08-81.03,729.71-81.15,729.53L-81.15,729.53z M-69.66,727.09h-8.29v1.51h2.51
		c-0.1,1.33-1.07,2.26-2.91,2.78l0.98,1.4c1.98-0.45,3.44-2.15,3.57-4.18h2.4c-0.01,0.49-0.04,0.98-0.09,1.47
		c-0.06,0.57-0.35,0.85-0.85,0.85c-0.49,0-0.98-0.02-1.47-0.07l0.38,1.59c0.27,0.03,0.57,0.04,0.91,0.04
		c0.78,0.1,1.57-0.09,2.23-0.53C-69.95,731.58-69.74,729.96-69.66,727.09L-69.66,727.09z M-82.9,737.76h10.2v-1.08h-10.2V737.76z
		 M-82.9,740.06h10.2v-1.17h-10.2V740.06z M-72.7,734.59h-10.2v0.96h10.2V734.59z M-65.59,737.31c1.93-0.44,3.71-1.4,5.14-2.78
		h-3.06v-7.22h13.87v7.22h-8.48c-0.2,0.24-0.38,0.47-0.55,0.68c-0.18,0.19-0.4,0.41-0.68,0.66h10.62c-0.08,3.99-0.35,6.39-0.83,7.2
		c-0.48,0.82-1.59,1.23-3.34,1.23c-0.38,0-0.71-0.01-1-0.02l-0.56-1.76c0.49,0.06,0.99,0.1,1.49,0.09c0.5,0.04,1.01-0.06,1.46-0.3
		c0.29-0.19,0.5-0.78,0.62-1.76s0.21-2.05,0.25-3.21h-1.33c-0.69,1.73-1.86,3.23-3.38,4.31c-1.6,1.25-3.46,2.14-5.44,2.6l-1.13-1.51
		c4.11-1.09,6.77-2.9,7.99-5.42h-2.15c-1.3,2.04-3.79,3.59-7.47,4.65l-1.04-1.57c2.99-0.72,5.1-1.76,6.33-3.12h-2.76
		c-1.09,0.66-2.24,1.2-3.44,1.62L-65.59,737.31L-65.59,737.31z M-51.53,728.81h-10.11v1.32h10.11L-51.53,728.81L-51.53,728.81z
		 M-61.64,733.02h10.11v-1.49h-10.11L-61.64,733.02L-61.64,733.02z M-40.59,735.44c-0.88,0.83-1.82,1.61-2.8,2.33l-1.08-1.7
		c2.34-1.36,4.32-3.25,5.8-5.52h-5.47v-1.72h6.45c0.4-0.7,0.74-1.43,1-2.19l1.98,0.32c-0.22,0.64-0.5,1.27-0.81,1.87h8.88v1.72
		h-9.77c-0.32,0.59-0.69,1.15-1.13,1.66h9.26v9.58c0.08,0.68-0.1,1.36-0.51,1.91c-0.59,0.43-1.32,0.62-2.04,0.53h-2.32l-0.38-1.81
		l2.36,0.09c0.26,0.03,0.52-0.01,0.76-0.11c0.11-0.09,0.17-0.36,0.17-0.81v-1.23h-8.37v4.08h-1.96L-40.59,735.44L-40.59,735.44z
		 M-38.62,737.05v1.68h8.35v-1.68H-38.62z M-38.62,733.89v1.57h8.35v-1.57H-38.62z M-10.65,735.65c0.1,0.98,0.39,1.93,0.85,2.8
		c0.97-0.64,1.84-1.43,2.57-2.34l1.35,1.25c-0.9,0.97-1.91,1.82-3,2.55c0.91,1.25,2.07,2.29,3.4,3.08l-1.08,1.43
		c-3.16-1.89-5.29-5.12-5.76-8.77h-1.91v6.14c0.57-0.18,1.12-0.34,1.64-0.49c0.53-0.16,1.06-0.35,1.57-0.57v1.8
		c-2.02,0.77-4.11,1.38-6.23,1.8l-0.34-1.83c0.56-0.06,1.11-0.17,1.64-0.32v-14.9h9.41v8.37L-10.65,735.65z M-16.78,728.56v-1.25
		h-6.16v17.1h1.74v-15.44h2.62c-0.37,1.48-0.84,2.94-1.42,4.36c0.83,1.28,1.38,2.74,1.59,4.25c0,0.62-0.34,0.92-1.02,0.92
		c-0.37,0-0.74-0.03-1.1-0.08l0.49,1.78c0.2,0.03,0.4,0.04,0.61,0.04c1.81,0,2.72-0.87,2.72-2.62c-0.19-1.55-0.7-3.04-1.51-4.37
		C-17.63,731.74-17.15,730.16-16.78,728.56L-16.78,728.56z M-14.24,734.02h5.97v-1.81h-5.97V734.02z M-8.27,728.88h-5.97v1.74h5.97
		V728.88z M10.9,736.28c1.64,2.3,2.88,4.85,3.68,7.56l-1.97,0.57c-0.14-0.66-0.37-1.31-0.68-1.91c-2.07,0.22-6.34,0.52-12.81,0.91
		l-0.35-2.11c0.5,0.01,0.95,0.02,1.34,0.02c0.46,0,0.89-0.01,1.28-0.04c1.88-2.62,3.24-5.58,4-8.71l1.98,0.51
		c-0.84,2.87-2.08,5.6-3.7,8.11c2.56-0.02,5.13-0.19,7.67-0.51c-0.63-1.27-1.34-2.49-2.14-3.67L10.9,736.28L10.9,736.28z
		 M3.43,726.68c-1.02,3.09-2.97,5.79-5.57,7.74l1.49,1.44c2.69-2.23,4.72-5.17,5.84-8.48L3.43,726.68L3.43,726.68z M10.31,727.08
		H6.23v1.67h2.95c1.09,2.57,2.83,4.81,5.05,6.5l1.43-1.49C13.23,732.14,11.36,729.81,10.31,727.08L10.31,727.08z M20.73,734.55
		h10.52v6.29H20.73L20.73,734.55L20.73,734.55z M32.56,731.01v1.74H20v-1.74H32.56z M36.11,727.48l-16.77-0.02v1.76h14.81v12.58
		c0.05,0.33-0.18,0.63-0.51,0.68c-0.06,0.01-0.12,0.01-0.17,0l-3.1-0.09l0.44,1.87h3.1c0.94,0.28,1.93-0.25,2.21-1.18
		c0.1-0.33,0.1-0.69,0-1.03L36.11,727.48L36.11,727.48z M29.4,736.21h-6.82v2.99h6.82V736.21z"/>
	<path id="Path_10" class="st1" d="M-126.11,760.17l-0.26-1.42c-0.06-0.34-0.16-0.8-0.29-1.41l-1.26-5.77l-0.46-1.95
		c0.65,0.01,1.17,0.02,1.57,0.02c0.45,0,0.98-0.01,1.57-0.02c0.14,0.84,0.25,1.45,0.33,1.85l0.65,3.11
		c0.13,0.67,0.28,1.48,0.45,2.45l0.26-1.08l0.92-3.57l0.64-2.76c0.71,0.01,1.3,0.02,1.79,0.02c0.53,0,1.12-0.01,1.78-0.02l0.49,3.25
		l0.67,4.14l0.3-1.14c0.06-0.2,0.12-0.4,0.18-0.6c0.06-0.2,0.19-0.6,0.39-1.2l0.94-2.97l0.44-1.5c0.62,0.01,1.13,0.01,1.54,0.01
		c0.46,0,0.97,0,1.53-0.01l-2.99,8.97l-0.48,1.57c-0.77-0.01-1.44-0.02-2.02-0.02c-0.61,0-1.28,0.01-2.01,0.02l-0.18-1.04
		l-0.68-3.68c-0.04-0.22-0.07-0.45-0.1-0.68c-0.03-0.23-0.07-0.6-0.12-1.09l-0.27,1.2c-0.07,0.27-0.14,0.54-0.21,0.81l-1.25,4.51
		c-0.78-0.01-1.42-0.02-1.93-0.02C-124.72,760.16-125.36,760.17-126.11,760.17L-126.11,760.17z M-110.24,760.17
		c0.13-1.33,0.22-2.44,0.28-3.34c0.06-0.9,0.12-2.09,0.18-3.57c0.06-1.48,0.09-2.47,0.09-2.95l-0.01-0.68
		c1.21,0.01,2.68,0.02,4.4,0.02c1.59,0,2.99-0.01,4.2-0.02l-0.02,0.26c0,0.06-0.02,0.28-0.04,0.67l-0.05,0.84
		c-0.01,0.18-0.02,0.36-0.02,0.55c-0.99-0.04-1.82-0.06-2.5-0.06c-0.74,0-1.24,0-1.5,0.01s-0.66,0.01-1.21,0.03l-0.09,1.77
		c0.61,0.02,1.31,0.02,2.12,0.02c0.29,0,1.06-0.02,2.3-0.05c-0.05,0.66-0.1,1.44-0.15,2.35c-0.89-0.01-1.57-0.02-2.05-0.02
		c-0.71,0-1.51,0.02-2.39,0.05l-0.1,1.88h0.89c0.26,0,0.81-0.01,1.63-0.02l1.6-0.04c0.24-0.01,0.63-0.03,1.19-0.06
		c-0.06,0.76-0.11,1.55-0.15,2.37c-1.25-0.01-2.63-0.02-4.12-0.02l-3.39,0.01l-1.1,0.01L-110.24,760.17z M-98.99,760.17
		c0.3-4.13,0.45-7.31,0.45-9.54l-0.01-1c0.9,0.01,1.5,0.02,1.8,0.02c0.14,0,0.69-0.01,1.66-0.02c-0.09,1.16-0.17,2.26-0.23,3.29
		c-0.07,1.44-0.13,2.79-0.16,4.04c-0.03,1.25-0.05,2.32-0.05,3.21l-1.58-0.02C-97.4,760.15-98.04,760.16-98.99,760.17L-98.99,760.17
		z M-92.91,760.17c0.13-1.21,0.22-2.21,0.27-2.97c0.11-1.4,0.19-2.79,0.24-4.17s0.08-2.52,0.08-3.39c0.7,0.01,1.32,0.02,1.86,0.02
		c0.37,0,0.89-0.01,1.57-0.02l-0.18,2.8l-0.23,4.37l-0.03,1.07c0.89,0.02,1.46,0.02,1.73,0.02c1.36,0,2.38-0.02,3.08-0.05
		l-0.17,2.32c-1.35-0.01-2.64-0.02-3.86-0.02C-90.21,760.16-91.66,760.16-92.91,760.17L-92.91,760.17z M-82.33,749.63
		c0.8,0.01,1.37,0.02,1.7,0.02c0.41,0,0.96-0.01,1.64-0.02l-0.23,3.28c-0.04,0.62-0.08,1.2-0.1,1.74s-0.04,0.91-0.04,1.12
		c-0.01,0.33,0.02,0.66,0.09,0.98c0.05,0.24,0.15,0.47,0.31,0.67c0.17,0.19,0.38,0.34,0.62,0.41c0.27,0.09,0.55,0.14,0.83,0.14
		c0.24,0,0.47-0.03,0.7-0.1c0.16-0.05,0.32-0.13,0.46-0.23c0.12-0.09,0.22-0.2,0.31-0.32c0.12-0.17,0.22-0.36,0.29-0.55
		c0.09-0.26,0.16-0.53,0.18-0.81c0.04-0.34,0.11-1.1,0.18-2.3c0.07-1.02,0.12-1.95,0.15-2.8c-0.01-0.41,0.02-0.82,0.08-1.23h3.4
		l-0.37,5.48c-0.01,0.1-0.01,0.19-0.01,0.25c0.01,0.76-0.06,1.52-0.2,2.27c-0.1,0.42-0.29,0.81-0.55,1.15
		c-0.31,0.37-0.69,0.66-1.13,0.88c-0.53,0.27-1.1,0.46-1.68,0.55c-0.63,0.11-1.27,0.16-1.91,0.16c-0.56,0-1.11-0.04-1.67-0.12
		c-0.46-0.07-0.91-0.19-1.34-0.36c-0.37-0.14-0.71-0.33-1.04-0.55c-0.24-0.17-0.44-0.37-0.62-0.6c-0.15-0.22-0.27-0.47-0.34-0.73
		c-0.09-0.33-0.14-0.68-0.14-1.03c0-0.12,0.01-0.31,0.02-0.56c0.01-0.25,0.03-0.61,0.07-1.08l0.1-1.23c0.02-0.32,0.05-0.8,0.08-1.43
		L-82.33,749.63L-82.33,749.63z M-69.71,760.17l0.15-1.62l0.3-5.49l0.08-2.22v-1.2c0.8,0.01,1.5,0.02,2.11,0.02
		c0.44,0,1.05-0.01,1.84-0.02l3.31,6l0.46,0.88c0.05-0.87,0.11-2.08,0.16-3.64s0.08-2.64,0.08-3.24c0.63,0.01,1.14,0.02,1.52,0.02
		c0.17,0,0.68-0.01,1.51-0.02l-0.18,2.3l-0.34,6.39l-0.04,1.85c-0.67-0.01-1.3-0.02-1.88-0.02c-0.48,0-1.15,0.01-2.01,0.02
		c-0.27-0.51-0.47-0.87-0.6-1.1l-1.3-2.2c-0.43-0.72-0.82-1.41-1.18-2.07c-0.24-0.42-0.48-0.88-0.73-1.38l-0.16,3.66l-0.07,3.08
		c-0.64-0.01-1.13-0.02-1.46-0.02C-68.41,760.16-68.94,760.16-69.71,760.17L-69.71,760.17z M-49.76,754.04
		c0.7,0.01,1.37,0.02,2.01,0.02c1.09,0,1.94-0.01,2.56-0.02c-0.07,0.7-0.13,1.7-0.2,2.99c-0.07,1.29-0.11,2.26-0.12,2.92
		c-0.59,0.11-1.08,0.19-1.47,0.24c-0.39,0.05-0.86,0.09-1.4,0.13s-1.03,0.06-1.46,0.06c-0.69,0-1.38-0.06-2.06-0.17
		c-0.63-0.1-1.24-0.28-1.81-0.55c-0.51-0.24-0.97-0.59-1.33-1.03c-0.37-0.46-0.65-0.98-0.82-1.53c-0.19-0.59-0.29-1.21-0.29-1.84
		c-0.01-1.02,0.26-2.03,0.78-2.91c0.53-0.91,1.31-1.64,2.24-2.13c1.18-0.57,2.47-0.83,3.78-0.78c1.26,0.01,2.51,0.15,3.74,0.41
		c0,0.75,0.03,1.58,0.1,2.5c-0.37-0.12-0.67-0.22-0.9-0.28s-0.5-0.12-0.8-0.18s-0.6-0.09-0.87-0.12s-0.52-0.04-0.74-0.04
		c-0.54,0-1.09,0.08-1.61,0.24c-0.48,0.15-0.93,0.41-1.3,0.75c-0.36,0.33-0.64,0.74-0.81,1.2c-0.18,0.47-0.27,0.97-0.27,1.48
		c-0.01,0.49,0.1,0.97,0.31,1.41c0.21,0.42,0.56,0.75,0.98,0.94c0.47,0.22,0.98,0.33,1.5,0.32c0.51-0.01,1.01-0.08,1.51-0.21
		l0.08-1.64c-0.33-0.01-0.53-0.02-0.59-0.02l-0.82,0.01l0.05-0.95c0-0.1,0.01-0.25,0.02-0.45S-49.76,754.38-49.76,754.04
		L-49.76,754.04z"/>
	<path id="Path_11" class="st1" d="M-40.52,757.38h-0.75v-4.96h0.75V757.38z M-32.91,757.38h-0.74l-2.42-3.22
		c-0.02-0.02-0.05-0.06-0.09-0.12s-0.09-0.13-0.13-0.21s-0.09-0.15-0.14-0.22s-0.08-0.13-0.1-0.16v3.93h-0.7v-4.96h0.79l2.31,3.11
		c0.04,0.05,0.08,0.12,0.14,0.19s0.1,0.15,0.15,0.23s0.09,0.15,0.14,0.22s0.07,0.13,0.1,0.17v-3.92h0.69L-32.91,757.38
		L-32.91,757.38z M-26.74,753.07h-1.25v4.31h-0.75v-4.31h-1.26v-0.64h3.26V753.07z M-21.35,757.38h-2.48v-4.96h2.47v0.64h-1.72v1.51
		h1.73v0.64h-1.73v1.54h1.73L-21.35,757.38L-21.35,757.38z M-16.04,753.75c0.02-0.21-0.08-0.41-0.26-0.52
		c-0.24-0.13-0.51-0.18-0.78-0.16h-0.4v1.51h0.37c0.28,0.02,0.57-0.06,0.8-0.22C-16.13,754.22-16.03,753.99-16.04,753.75
		L-16.04,753.75z M-14.87,757.38h-0.89l-1.38-2.19h-0.34v2.19h-0.75v-4.96h1.12c0.25,0,0.49,0.02,0.73,0.06
		c0.21,0.04,0.41,0.11,0.59,0.21c0.16,0.1,0.3,0.23,0.39,0.4c0.1,0.19,0.15,0.41,0.14,0.62c0,0.17-0.03,0.34-0.1,0.5
		c-0.06,0.15-0.15,0.28-0.26,0.4c-0.11,0.11-0.23,0.21-0.37,0.28c-0.13,0.07-0.28,0.13-0.42,0.16L-14.87,757.38L-14.87,757.38z
		 M-7.83,757.38h-0.74l-2.42-3.22c-0.02-0.02-0.05-0.06-0.09-0.12s-0.09-0.13-0.13-0.21s-0.09-0.15-0.14-0.22s-0.08-0.13-0.1-0.16
		v3.93h-0.7v-4.96h0.79l2.31,3.11c0.04,0.05,0.08,0.12,0.14,0.19s0.1,0.15,0.15,0.23s0.09,0.15,0.14,0.22s0.08,0.13,0.1,0.17v-3.92
		h0.69L-7.83,757.38L-7.83,757.38z M-0.6,757.38H-1.4l-0.56-1.42h-1.91l-0.52,1.42h-0.81l1.92-4.96h0.73L-0.6,757.38L-0.6,757.38z
		 M-2.81,753.62c-0.01-0.03-0.03-0.09-0.05-0.16c-0.02-0.07-0.04-0.14-0.05-0.21h-0.02c-0.01,0.07-0.03,0.15-0.05,0.22
		c-0.01,0.06-0.03,0.12-0.05,0.17l-0.6,1.66h1.44L-2.81,753.62L-2.81,753.62z M4.91,753.07H3.67v4.31H2.92v-4.31H1.66v-0.64h3.26
		L4.91,753.07L4.91,753.07z M8.58,757.38H7.83v-4.96h0.75V757.38L8.58,757.38z M15.53,754.92c0-0.27-0.03-0.55-0.1-0.81
		c-0.06-0.22-0.16-0.43-0.29-0.61c-0.13-0.16-0.29-0.29-0.48-0.38c-0.21-0.09-0.43-0.14-0.66-0.13c-0.23,0-0.45,0.04-0.65,0.14
		c-0.19,0.09-0.36,0.23-0.5,0.39c-0.14,0.18-0.25,0.39-0.32,0.61c-0.08,0.25-0.11,0.52-0.11,0.78c0,0.26,0.03,0.53,0.11,0.78
		c0.06,0.22,0.17,0.42,0.31,0.6c0.13,0.16,0.3,0.3,0.49,0.39c0.2,0.09,0.42,0.14,0.64,0.14c0.23,0,0.46-0.04,0.67-0.13
		c0.19-0.08,0.37-0.21,0.5-0.37c0.14-0.18,0.25-0.38,0.31-0.6C15.5,755.46,15.54,755.19,15.53,754.92L15.53,754.92z M16.31,754.84
		c0.01,0.37-0.05,0.73-0.16,1.09c-0.1,0.3-0.26,0.58-0.47,0.82c-0.2,0.23-0.46,0.41-0.74,0.52c-0.31,0.13-0.65,0.19-0.99,0.18
		c-0.33,0-0.65-0.06-0.96-0.18c-0.28-0.11-0.53-0.28-0.73-0.5c-0.21-0.23-0.37-0.5-0.47-0.79c-0.11-0.33-0.17-0.67-0.17-1.02
		c0-0.36,0.05-0.73,0.16-1.07c0.1-0.3,0.26-0.58,0.47-0.82c0.21-0.23,0.47-0.41,0.76-0.52c0.32-0.13,0.67-0.19,1.01-0.18
		c0.32,0,0.64,0.06,0.94,0.18c0.27,0.11,0.52,0.29,0.72,0.51c0.2,0.23,0.36,0.49,0.46,0.78C16.25,754.16,16.31,754.5,16.31,754.84
		L16.31,754.84z M23.67,757.38h-0.74l-2.42-3.22c-0.02-0.02-0.05-0.06-0.09-0.12s-0.09-0.13-0.13-0.21s-0.09-0.15-0.14-0.22
		s-0.08-0.13-0.1-0.16v3.93h-0.7v-4.96h0.79l2.31,3.11c0.04,0.05,0.08,0.12,0.14,0.19s0.1,0.15,0.15,0.23s0.09,0.15,0.14,0.22
		s0.07,0.13,0.1,0.17v-3.92h0.69L23.67,757.38L23.67,757.38z M30.9,757.38h-0.81l-0.55-1.42h-1.91l-0.52,1.42H26.3l1.92-4.96h0.73
		L30.9,757.38L30.9,757.38z M28.69,753.62c-0.01-0.03-0.03-0.09-0.05-0.16c-0.02-0.07-0.04-0.14-0.05-0.21h-0.02
		c-0.01,0.07-0.03,0.15-0.05,0.22c-0.02,0.06-0.03,0.12-0.05,0.17l-0.6,1.66h1.44L28.69,753.62L28.69,753.62z M35.92,757.38h-2.38
		v-4.96h0.75v4.32h1.62L35.92,757.38z"/>
	<circle id="Ellipse_2" class="st2" cx="-152.56" cy="743.49" r="19.47"/>
	<path id="Path_12" class="st3" d="M-146.69,749.46c4.33,1.99,7.41,4.16,8.28,6.64l0.42-0.14c-1.15-2.77-4.42-4.95-8.49-6.9
		L-146.69,749.46z"/>
	<path id="Path_13" class="st3" d="M-143.17,745.33c4.13,1.71,7.03,3.64,7.78,5.96l0.42-0.15c-1.01-2.58-4.09-4.51-7.98-6.2
		L-143.17,745.33z"/>
	<path id="Path_14" class="st3" d="M-154.44,739.61c1.28-7.48,4.37-11.08,8.51-13.49l-0.32-0.37c-6.73,4.38-7.51,9.53-8.54,13.69
		L-154.44,739.61z"/>
	<path id="Path_15" class="st3" d="M-160.37,740.17c-0.17-7.16,2.49-13.01,7.26-15.55l-0.2-0.3c-6.09,3.71-7.27,9.82-7.42,15.71
		L-160.37,740.17z"/>
	<path id="Path_16" class="st3" d="M-171.26,746.59c10.88-0.83,18.97,4.41,23.43,15.4l0.42-0.13c-4.78-11.04-13.41-17.3-23.94-15.63
		L-171.26,746.59z"/>
	<path id="Path_17" class="st1" d="M-159.86,741.43l-6.7-1c-1.31-0.21-1.34-1.22-3.92-0.63l2.06,2.29l10.34,1.5l0.08,0.4l-10.23-1.7
		l1.72,2.36l1.74-0.1l1.47,1.3l0.59-0.89c1.15,0.06,2.27,0.36,3.29,0.87c0.78,0.45,6.99,2.29,9.31,4.17l-3.01-2.44l5.64,2.04
		l-3.65-2.76l6.11,0.87l-5.51-2.62l7.04,1.59l-5.62-2.45l5.61,0.89l-4.6-1.62l6.39-1.43h-3.6l10.42-2.58l-15.96,2.3
		c-1.94-0.9-4.15-1.04-6.19-0.4C-157.87,742.04-159.02,742.05-159.86,741.43L-159.86,741.43z M-151.96,740.82l8.85-1.23l-7.41,1.92
		L-151.96,740.82L-151.96,740.82z M-156.66,741.84c1.2-0.2,2.42-0.29,3.63-0.26l0.38,0.07l-2.6,0.6L-156.66,741.84z"/>
</g>
</svg>
