<?xml version="1.0" encoding="utf-8"?>
<!-- Generator: Adobe Illustrator 25.0.0, SVG Export Plug-In . SVG Version: 6.00 Build 0)  -->
<svg version="1.1" id="圖層_1" xmlns="http://www.w3.org/2000/svg" xmlns:xlink="http://www.w3.org/1999/xlink" x="0px" y="0px"
	 viewBox="0 0 60 60" style="enable-background:new 0 0 60 60;" xml:space="preserve">
<style type="text/css">
	.st0{fill:none;}
	.st1{fill:none;stroke:#FFFFFF;stroke-width:1.9992;}
	.st2{fill:#FFFFFF;}
</style>
<g id="pic_1" transform="translate(-178 -337)">
	<g id="Ellipse_3" transform="translate(178 337)">
		<ellipse class="st0" cx="30" cy="29.98" rx="30" ry="29.98"/>
		<ellipse class="st1" cx="30" cy="29.98" rx="29" ry="28.98"/>
	</g>
	<path id="Icon_material-shopping-cart" class="st2" d="M202.47,375.26c-1.53,0-2.76,1.24-2.76,2.76s1.24,2.76,2.76,2.76
		s2.76-1.24,2.76-2.76C205.24,376.5,204,375.26,202.47,375.26C202.47,375.26,202.47,375.26,202.47,375.26z M194.18,353.17v2.76h2.76
		l4.98,10.48l-1.87,3.38c-0.23,0.4-0.35,0.86-0.35,1.33c0,1.52,1.24,2.76,2.76,2.76h16.59v-2.76h-16.01c-0.19,0-0.34-0.15-0.35-0.34
		c0,0,0-0.01,0-0.01l0.04-0.17l1.24-2.25h10.3c1.01,0,1.93-0.54,2.42-1.42l4.95-8.96c0.11-0.2,0.17-0.43,0.17-0.66
		c0-0.76-0.62-1.38-1.38-1.38H200l-1.3-2.76H194.18z M216.29,375.26c-1.53,0-2.76,1.24-2.76,2.76s1.24,2.76,2.76,2.76
		c1.53,0,2.76-1.24,2.76-2.76C219.06,376.5,217.82,375.26,216.29,375.26C216.3,375.26,216.29,375.26,216.29,375.26z"/>
</g>
</svg>
