<?xml version="1.0" encoding="utf-8"?>
<!-- Generator: Adobe Illustrator 25.0.0, SVG Export Plug-In . SVG Version: 6.00 Build 0)  -->
<svg version="1.1" id="圖層_1" xmlns="http://www.w3.org/2000/svg" xmlns:xlink="http://www.w3.org/1999/xlink" x="0px" y="0px"
	 viewBox="0 0 45.18 45.93" style="enable-background:new 0 0 45.18 45.93;" xml:space="preserve">
<style type="text/css">
	.st0{fill:#FFFFFF;}
	.st1{fill:none;stroke:#9E958E;stroke-width:0.9731;}
	.st2{fill:#9E958E;}
</style>
<g id="fb" transform="translate(-0.001)">
	<g id="Ellipse_6" transform="translate(0.001)">
		<ellipse class="st0" cx="23.02" cy="22.57" rx="21.98" ry="22.35"/>
		<ellipse class="st1" cx="23.02" cy="22.57" rx="21.49" ry="21.86"/>
	</g>
	<path id="Icon_metro-facebook" class="st2" d="M29.1,13.53H16.54c-1.73,0-3.14,1.41-3.14,3.14c0,0,0,0,0,0v12.56
		c0,1.73,1.41,3.14,3.14,3.14c0,0,0,0,0,0h6.28v-8.24h-2.36v-2.36h2.36v-1.77c0-1.63,1.32-2.94,2.94-2.94h2.94v2.36h-2.94
		c-0.33,0-0.59,0.26-0.59,0.59v1.77h3.23l-0.58,2.36h-2.65v8.24h3.93c1.73,0,3.14-1.41,3.14-3.14c0,0,0,0,0,0V16.67
		C32.24,14.93,30.84,13.53,29.1,13.53L29.1,13.53L29.1,13.53z"/>
</g>
</svg>
