<?xml version="1.0" encoding="utf-8"?>
<!-- Generator: Adobe Illustrator 25.0.0, SVG Export Plug-In . SVG Version: 6.00 Build 0)  -->
<svg version="1.1" id="圖層_1" xmlns="http://www.w3.org/2000/svg" xmlns:xlink="http://www.w3.org/1999/xlink" x="0px" y="0px"
	 viewBox="0 0 45.18 45.93" style="enable-background:new 0 0 45.18 45.93;" xml:space="preserve">
<style type="text/css">
	.st0{fill:#FFFFFF;}
	.st1{fill:none;stroke:#9E958E;stroke-width:0.9769;}
	.st2{fill:#9E958E;}
</style>
<g id="line" transform="translate(0.001)">
	<g id="Ellipse_6" transform="translate(-0.001)">
		<ellipse class="st0" cx="23.02" cy="22.57" rx="22.07" ry="22.43"/>
		<ellipse class="st1" cx="23.02" cy="22.57" rx="21.58" ry="21.95"/>
	</g>
	<path id="Icon_simple-line" class="st2" d="M29.53,21.29c0.31,0,0.56,0.25,0.56,0.56s-0.25,0.56-0.56,0.56h-1.55v0.99h1.55
		c0.31,0,0.56,0.25,0.56,0.56c0,0.31-0.25,0.56-0.56,0.56c0,0,0,0,0,0h-2.11c-0.31,0-0.55-0.25-0.55-0.56v-4.21
		c0-0.31,0.25-0.56,0.56-0.56h2.11c0.31,0.01,0.55,0.27,0.53,0.58c-0.01,0.29-0.24,0.52-0.53,0.53h-1.55v0.99H29.53z M26.12,23.95
		c0,0.24-0.15,0.45-0.38,0.53c-0.06,0.02-0.12,0.03-0.18,0.03c-0.18,0-0.34-0.08-0.45-0.22l-2.16-2.93v2.6
		c0,0.31-0.25,0.56-0.55,0.56c-0.31,0-0.56-0.25-0.56-0.55c0,0,0,0,0,0v-4.21c0-0.24,0.15-0.45,0.38-0.53
		c0.05-0.02,0.11-0.03,0.17-0.03c0.17,0.01,0.33,0.09,0.44,0.22l2.17,2.94v-2.61c0.01-0.31,0.27-0.55,0.58-0.53
		c0.29,0.01,0.52,0.24,0.53,0.53L26.12,23.95L26.12,23.95z M21.05,23.95c0.01,0.31-0.23,0.57-0.53,0.58
		c-0.31,0.01-0.57-0.23-0.58-0.53c0-0.02,0-0.03,0-0.05v-4.21c-0.01-0.31,0.23-0.57,0.53-0.58c0.31-0.01,0.57,0.23,0.58,0.53
		c0,0.02,0,0.03,0,0.05V23.95z M18.87,24.51h-2.11c-0.31,0-0.55-0.25-0.56-0.56v-4.21c0.01-0.31,0.27-0.55,0.58-0.53
		c0.29,0.01,0.52,0.24,0.53,0.53v3.66h1.55c0.31,0,0.56,0.25,0.56,0.56C19.43,24.26,19.18,24.51,18.87,24.51 M33.62,21.69
		c0-4.74-4.76-8.6-10.6-8.6s-10.6,3.86-10.6,8.6c0,4.25,3.77,7.81,8.86,8.49c0.34,0.07,0.81,0.23,0.93,0.52
		c0.08,0.31,0.09,0.64,0.03,0.95l-0.14,0.9c-0.04,0.27-0.21,1.05,0.93,0.57c3.07-1.62,5.88-3.7,8.33-6.16
		C32.77,25.56,33.58,23.67,33.62,21.69"/>
</g>
</svg>
