<?xml version="1.0" encoding="utf-8"?>
<!-- Generator: Adobe Illustrator 25.0.0, SVG Export Plug-In . SVG Version: 6.00 Build 0)  -->
<svg version="1.1" id="圖層_1" xmlns="http://www.w3.org/2000/svg" xmlns:xlink="http://www.w3.org/1999/xlink" x="0px" y="0px"
	 viewBox="0 0 19.6 20.44" style="enable-background:new 0 0 19.6 20.44;" xml:space="preserve">
<style type="text/css">
	.st0{fill:#121212;}
</style>
<g id="x" transform="translate(-337.699 -361.78)">
	<path id="Rectangle_1437" class="st0" d="M339.5,363.92l1.22-1.14c0.81-0.75,2.07-0.71,2.83,0.1l12.73,13.65
		c0.75,0.81,0.71,2.07-0.1,2.83l-1.22,1.14c-0.81,0.75-2.07,0.71-2.83-0.1l-12.73-13.65C338.64,365.93,338.69,364.67,339.5,363.92z"
		/>
	<path id="Rectangle_1438" class="st0" d="M340.72,380.49l-1.22-1.14c-0.81-0.75-0.85-2.02-0.1-2.83l12.73-13.65
		c0.75-0.81,2.02-0.85,2.83-0.1l1.22,1.14c0.81,0.75,0.85,2.02,0.1,2.83l-12.73,13.65C342.79,381.2,341.52,381.25,340.72,380.49z"/>
</g>
</svg>
